<?xml version="1.0" encoding="UTF-8"?>
<!-- Generator: visioncortex VTracer 0.6.3 -->
<svg version="1.1" xmlns="http://www.w3.org/2000/svg" width="1280" height="1280">
<path d="M0 0 C1.95 -0 3.9 -0.01 5.86 -0.01 C9.92 -0.02 13.98 -0.02 18.04 -0.01 C22.13 -0.01 26.21 -0.02 30.3 -0.04 C61.68 -0.17 92.4 0.86 123.39 6.3 C124.87 6.55 126.36 6.8 127.85 7.05 C131.47 7.66 135.09 8.29 138.71 8.92 C140.97 9.32 143.24 9.71 145.5 10.09 C147.01 10.36 148.51 10.62 150.02 10.88 C150.7 11 151.38 11.11 152.08 11.23 C157.87 12.25 163.54 13.57 169.22 15.08 C172.84 16.03 176.46 16.95 180.09 17.87 C226.82 29.71 272.88 45.87 315.32 68.93 C318.27 70.51 321.24 72.04 324.22 73.57 C325.33 74.13 326.43 74.7 327.57 75.29 C329.71 76.38 331.85 77.48 334 78.57 C340.89 82.12 347.4 86.07 353.89 90.3 C355.23 91.15 356.58 91.99 357.93 92.82 C367.05 98.46 376.02 104.28 384.89 110.3 C385.74 110.88 386.6 111.46 387.48 112.06 C399.8 120.56 411.63 129.77 423.35 139.08 C424.76 140.2 426.17 141.31 427.59 142.41 C433.05 146.7 438.21 151.24 443.32 155.95 C445.4 157.85 447.5 159.71 449.64 161.55 C460.46 171 470.72 181.03 480.89 191.18 C481.38 191.67 481.88 192.16 482.38 192.67 C488.11 198.36 493.63 204.16 498.89 210.3 C500.55 212.14 502.21 213.97 503.89 215.8 C510.84 223.43 517.49 231.2 523.89 239.3 C524.74 240.38 525.6 241.45 526.45 242.52 C535.68 254.14 544.52 266.05 552.89 278.3 C553.25 278.83 553.6 279.35 553.97 279.89 C560.05 288.8 565.76 297.9 571.35 307.13 C573.41 310.54 575.53 313.9 577.7 317.24 C583.47 326.26 588.2 335.81 592.94 345.4 C594.6 348.75 596.28 352.09 597.95 355.43 C598.89 357.31 599.84 359.2 600.78 361.09 C601.6 362.72 602.43 364.35 603.26 365.98 C607.1 373.55 610.57 381.24 613.89 389.05 C614.28 389.97 614.28 389.97 614.68 390.91 C620.54 404.67 625.74 418.55 630.39 432.76 C631.35 435.69 632.34 438.61 633.35 441.53 C637.88 454.6 641.44 467.91 644.89 481.3 C645.14 482.28 645.4 483.27 645.67 484.28 C653.01 512.41 658.04 541.37 660.89 570.3 C660.98 571.23 661.08 572.15 661.18 573.1 C662.38 584.66 663.17 596.19 663.55 607.8 C663.58 608.71 663.61 609.62 663.64 610.55 C663.68 611.75 663.68 611.75 663.71 612.97 C663.83 615.3 663.83 615.3 664.39 617.53 C665.1 621.48 665.03 625.36 665.02 629.36 C665.02 630.23 665.02 631.1 665.02 632 C665.02 633.83 665.02 635.66 665.02 637.49 C665.01 640.29 665.02 643.09 665.02 645.89 C665.02 647.67 665.02 649.45 665.02 651.24 C665.02 652.49 665.02 652.49 665.03 653.76 C665.01 657.76 664.78 661.38 663.89 665.3 C663.78 666.75 663.71 668.21 663.68 669.66 C663.64 670.94 663.64 670.94 663.6 672.24 C663.57 673.17 663.54 674.09 663.51 675.05 C662.41 703.15 658.86 730.65 653.89 758.3 C653.67 759.49 653.46 760.68 653.24 761.91 C649.18 784.04 643.65 805.82 637.2 827.36 C636.65 829.21 636.65 829.21 636.08 831.09 C633.9 838.25 631.52 845.3 628.89 852.3 C628.63 852.99 628.37 853.68 628.11 854.4 C627.16 856.95 626.2 859.49 625.24 862.04 C623.98 865.38 622.73 868.72 621.52 872.07 C615.38 888.98 608.09 905.43 599.85 921.41 C598.51 924.04 597.2 926.69 595.89 929.33 C586.01 949.27 575.15 968.72 562.89 987.3 C562.51 987.87 562.14 988.44 561.76 989.02 C556.34 997.28 550.76 1005.36 544.89 1013.3 C544.03 1014.47 543.18 1015.65 542.33 1016.82 C536.05 1025.48 529.57 1033.95 522.89 1042.3 C521.71 1043.77 521.71 1043.77 520.51 1045.27 C516.23 1050.56 511.82 1055.69 507.22 1060.72 C505.31 1062.83 503.44 1064.96 501.57 1067.11 C492.26 1077.76 482.37 1087.91 472.39 1097.93 C471.66 1098.66 470.93 1099.39 470.18 1100.15 C466.16 1104.16 462.04 1107.99 457.74 1111.69 C455.07 1114.01 452.48 1116.4 449.89 1118.8 C442.11 1125.95 434.18 1132.76 425.89 1139.3 C424.81 1140.16 423.74 1141.01 422.66 1141.87 C411.05 1151.09 399.14 1159.93 386.89 1168.3 C386.36 1168.66 385.84 1169.02 385.3 1169.39 C376.38 1175.46 367.28 1181.18 358.05 1186.76 C354.65 1188.83 351.29 1190.95 347.95 1193.11 C338.92 1198.89 329.35 1203.63 319.75 1208.38 C317.89 1209.3 316.03 1210.23 314.18 1211.17 C287.6 1224.58 260.73 1236.54 232.43 1245.8 C229.49 1246.76 226.57 1247.75 223.66 1248.77 C210.59 1253.3 197.28 1256.85 183.89 1260.3 C182.9 1260.56 181.92 1260.82 180.91 1261.08 C153.38 1268.27 125.02 1273.31 96.7 1276.03 C93.95 1276.29 91.2 1276.59 88.45 1276.88 C78.12 1277.97 67.82 1278.62 57.43 1278.96 C56.07 1279.01 56.07 1279.01 54.67 1279.05 C53.46 1279.09 53.46 1279.09 52.23 1279.13 C49.89 1279.24 49.89 1279.24 47.65 1279.81 C43.71 1280.51 39.83 1280.44 35.82 1280.43 C34.96 1280.43 34.09 1280.44 33.19 1280.44 C31.36 1280.44 29.53 1280.44 27.69 1280.43 C24.9 1280.43 22.1 1280.43 19.3 1280.44 C17.52 1280.44 15.73 1280.44 13.95 1280.43 C12.7 1280.44 12.7 1280.44 11.42 1280.44 C7.42 1280.42 3.8 1280.2 -0.11 1279.3 C-1.56 1279.19 -3.02 1279.12 -4.47 1279.09 C-5.75 1279.05 -5.75 1279.05 -7.05 1279.01 C-7.98 1278.98 -8.91 1278.95 -9.86 1278.93 C-37.96 1277.83 -65.47 1274.27 -93.11 1269.3 C-94.3 1269.09 -95.5 1268.87 -96.72 1268.65 C-118.85 1264.59 -140.63 1259.07 -162.18 1252.61 C-163.41 1252.24 -164.64 1251.88 -165.9 1251.5 C-173.06 1249.32 -180.11 1246.94 -187.11 1244.3 C-187.8 1244.04 -188.5 1243.79 -189.21 1243.52 C-191.76 1242.57 -194.31 1241.61 -196.85 1240.65 C-200.19 1239.39 -203.53 1238.14 -206.89 1236.93 C-223.79 1230.79 -240.24 1223.51 -256.22 1215.27 C-258.85 1213.92 -261.5 1212.62 -264.15 1211.31 C-284.08 1201.42 -303.53 1190.56 -322.11 1178.3 C-322.68 1177.93 -323.25 1177.56 -323.83 1177.17 C-332.09 1171.76 -340.17 1166.17 -348.11 1160.3 C-349.29 1159.45 -350.46 1158.6 -351.63 1157.75 C-360.29 1151.46 -368.77 1144.99 -377.11 1138.3 C-378.58 1137.13 -378.58 1137.13 -380.08 1135.93 C-385.37 1131.64 -390.51 1127.23 -395.53 1122.64 C-397.66 1120.71 -399.81 1118.82 -401.97 1116.93 C-413.13 1107.19 -423.69 1096.82 -434.18 1086.36 C-434.67 1085.87 -435.16 1085.38 -435.67 1084.88 C-441.37 1079.2 -446.88 1073.42 -452.11 1067.3 C-453.77 1065.46 -455.44 1063.63 -457.11 1061.8 C-458.78 1059.97 -460.45 1058.13 -462.11 1056.3 C-462.71 1055.64 -463.31 1054.99 -463.92 1054.31 C-478.87 1037.58 -492.72 1018.99 -505.11 1000.3 C-505.84 999.23 -506.56 998.17 -507.3 997.07 C-512.96 988.7 -518.31 980.19 -523.53 971.55 C-525.05 969.04 -526.59 966.55 -528.16 964.08 C-533.71 955.37 -538.41 946.26 -543.12 937.08 C-544.88 933.66 -546.67 930.26 -548.54 926.89 C-554.51 916.1 -559.47 904.92 -564.36 893.61 C-564.87 892.44 -564.87 892.44 -565.39 891.23 C-574.15 870.98 -581.35 850.29 -588.11 829.3 C-588.48 828.17 -588.84 827.04 -589.22 825.88 C-601.29 787.98 -609.19 747.87 -613.11 708.3 C-613.19 707.56 -613.27 706.82 -613.35 706.06 C-614.77 692.4 -615.43 678.91 -615.41 665.19 C-615.42 663.24 -615.42 661.28 -615.43 659.33 C-615.43 655.27 -615.43 651.21 -615.43 647.15 C-615.42 643.06 -615.43 638.97 -615.45 634.89 C-615.59 603.5 -614.55 572.78 -609.11 541.8 C-608.86 540.31 -608.61 538.82 -608.36 537.34 C-607.75 533.71 -607.13 530.09 -606.49 526.48 C-606.1 524.21 -605.71 521.95 -605.32 519.69 C-605.06 518.18 -604.8 516.67 -604.54 515.17 C-604.42 514.49 -604.3 513.8 -604.18 513.1 C-603.17 507.32 -601.84 501.64 -600.34 495.97 C-599.38 492.35 -598.46 488.73 -597.55 485.1 C-592.26 464.26 -586.24 443.75 -578.92 423.53 C-578.19 421.52 -577.48 419.5 -576.76 417.48 C-562.3 377.6 -543.47 334.25 -518.25 299.93 C-516.71 297.72 -515.42 295.4 -514.11 293.05 C-512.39 290.04 -510.48 287.18 -508.55 284.3 C-508.12 283.65 -507.68 283 -507.24 282.34 C-502.89 275.88 -498.3 269.62 -493.65 263.38 C-491.97 261.11 -490.31 258.83 -488.66 256.55 C-480.56 245.45 -472.17 234.82 -463.05 224.52 C-461.06 222.24 -459.11 219.93 -457.16 217.62 C-451.83 211.32 -446.32 205.2 -440.68 199.18 C-440 198.45 -439.33 197.73 -438.63 196.99 C-436.04 194.24 -433.55 191.64 -430.58 189.31 C-428.35 187.49 -426.68 185.72 -424.82 183.55 C-421.09 179.19 -417.05 175.27 -412.86 171.36 C-411.75 170.32 -411.75 170.32 -410.61 169.25 C-405.7 164.68 -400.7 160.33 -395.41 156.2 C-392.81 154.05 -390.49 151.69 -388.11 149.3 C-384.86 146.53 -381.48 143.93 -378.11 141.3 C-377.12 140.52 -376.13 139.75 -375.1 138.95 C-367.45 133 -359.66 127.25 -351.82 121.55 C-350.32 120.45 -348.84 119.35 -347.35 118.25 C-333.3 107.85 -318.55 98.6 -303.51 89.72 C-297.8 86.34 -292.12 82.93 -286.49 79.43 C-280.46 75.82 -274.19 72.73 -267.89 69.66 C-265.23 68.36 -262.57 67.05 -259.92 65.74 C-243.55 57.66 -227.1 50.01 -210.11 43.3 C-209.42 43.03 -208.74 42.75 -208.03 42.47 C-193.65 36.73 -178.84 32.05 -164.11 27.3 C-162.42 26.75 -162.42 26.75 -160.69 26.2 C-122.79 14.12 -82.68 6.22 -43.11 2.3 C-42.37 2.22 -41.63 2.15 -40.87 2.07 C-27.21 0.65 -13.72 -0.01 0 0 Z " fill="#8DBEFC" transform="translate(615.11328125,-0.30078125)"/>
<path d="M0 0 C-0.32 3.06 -0.99 3.99 -3.29 6.14 C-4.2 6.84 -5.12 7.53 -6.06 8.25 C-7.44 9.31 -7.44 9.31 -8.85 10.39 C-9.91 11.19 -9.91 11.19 -11 12 C-7.8 14.13 -5.11 14.99 -1.44 16.12 C13.22 20.84 28.26 26.62 39 38 C39.99 38.66 40.98 39.32 42 40 C42 40.66 42 41.32 42 42 C42.66 42 43.32 42 44 42 C51.13 50.59 52.85 58.95 52 70 C50.46 81.97 43.43 91.7 34.19 99 C19.6 109.22 2.33 112.59 -15 115 C-14.17 115.26 -13.34 115.53 -12.48 115.8 C0.66 120.33 13.8 126.35 24 136 C24 136.66 24 137.32 24 138 C24.66 138 25.32 138 26 138 C35.02 147 37.7 157.75 38.03 170.13 C37.91 185.14 31.53 196.54 21 207 C6.68 219.88 -10.19 228.08 -29 232 C-29.65 232.17 -30.3 232.34 -30.97 232.51 C-39.35 234.51 -47.81 234.35 -56.38 234.31 C-57.18 234.31 -57.98 234.31 -58.8 234.31 C-71.09 234.27 -82.96 233.64 -95 231 C-95.74 230.84 -96.47 230.69 -97.23 230.53 C-102.19 229.47 -107.1 228.28 -112 227 C-113.19 226.69 -114.38 226.38 -115.61 226.07 C-122.74 224.12 -129.63 221.75 -136.5 219.02 C-140.32 217.52 -143.88 216.2 -148 216 C-150.46 217.11 -150.46 217.11 -152.75 218.94 C-174.17 233.52 -200.51 238.25 -226 234 C-236.78 231.71 -246.85 227.29 -253.12 217.81 C-254.7 214.89 -255.75 212.35 -256 209 C-256.12 207.78 -256.25 206.57 -256.38 205.31 C-256.26 199.04 -253.31 193.64 -249.24 188.98 C-240.22 180.57 -228.99 176.45 -216.72 176.75 C-211.33 177.25 -206.2 178.54 -201 180 C-199.95 180.29 -198.91 180.59 -197.83 180.89 C-188 184.04 -179.26 189.02 -170.3 194.06 C-168.53 195.05 -166.77 196.02 -165 197 C-164.09 197.5 -163.18 198.01 -162.24 198.52 C-160.92 199.22 -160.92 199.22 -159.58 199.94 C-158.79 200.36 -158.01 200.78 -157.2 201.21 C-154.61 202.14 -153.52 202.05 -151 201 C-144.54 194.43 -139.05 186.68 -134 179 C-133.59 178.37 -133.17 177.75 -132.74 177.1 C-120.82 158.97 -110.82 139.84 -101.2 120.41 C-96.01 109.95 -90.23 99.89 -84.16 89.92 C-83 88 -81.85 86.07 -80.71 84.14 C-70.47 66.85 -59.28 49.25 -45 35 C-43.48 33.21 -41.98 31.39 -40.5 29.56 C-39.73 28.61 -38.96 27.65 -38.16 26.67 C-37.45 25.79 -36.73 24.91 -36 24 C-34.34 21.99 -32.67 20 -31 18 C-62.06 9.21 -103.03 12.68 -134 20 C-134.92 20.21 -135.83 20.41 -136.78 20.62 C-155.75 24.93 -174.42 31 -190 43 C-190.96 43.73 -191.93 44.46 -192.92 45.22 C-205.91 55.46 -218.77 70.29 -222 87 C-222.77 94.64 -222.06 101.35 -218 108 C-210.58 116.23 -202.89 119.13 -192 120 C-180.41 120.13 -170.49 118.25 -161.88 110.11 C-156.53 104.1 -152.63 97.54 -150.8 89.68 C-150 88 -150 88 -147.92 87.26 C-147.29 87.17 -146.65 87.09 -146 87 C-144.09 90.81 -144.55 94.52 -145.75 98.47 C-150.52 110.86 -157.97 119.24 -170.05 124.81 C-182.26 129.73 -196.82 129.37 -209.14 124.85 C-218.24 120.64 -228.64 113.45 -232.9 104.01 C-234.89 98.57 -235.55 93.52 -235.5 87.75 C-235.5 86.92 -235.49 86.1 -235.48 85.25 C-235.27 77.77 -233.45 71.66 -230 65 C-229.55 64.12 -229.11 63.24 -228.65 62.34 C-225 55.74 -220.19 50.42 -215 45 C-214.32 44.25 -213.65 43.5 -212.95 42.72 C-198.34 27.06 -178.18 18.79 -158 13 C-157.17 12.72 -156.34 12.43 -155.48 12.14 C-149.97 10.25 -144.37 9.32 -138.62 8.44 C-137.88 8.32 -137.13 8.21 -136.36 8.09 C-133.58 7.69 -130.79 7.34 -128 7 C-126.99 6.88 -126.99 6.88 -125.96 6.75 C-111.9 5.04 -97.97 4.64 -83.81 4.69 C-82.74 4.69 -81.67 4.69 -80.57 4.69 C-43.78 4.74 -43.78 4.74 -31 9 C-22.7 10.58 -17 7.22 -10.2 2.95 C-2.94 -1.47 -2.94 -1.47 0 0 Z " fill="#F9FCFE" transform="translate(603,692)"/>
<path d="M0 0 C13.83 11.29 13.83 11.29 16 19 C16.99 18.5 16.99 18.5 18 18 C24.04 29.4 26.39 37.1 26 50 C27.18 49.94 27.18 49.94 28.38 49.88 C31 50 31 50 33 52 C33.45 55.63 33.32 59.29 33.31 62.94 C33.33 63.95 33.34 64.97 33.36 66.01 C33.36 66.99 33.36 67.96 33.36 68.96 C33.37 69.86 33.37 70.75 33.37 71.67 C32.93 74.45 32.06 75.18 30 77 C29.85 79.07 29.85 79.07 30.31 81.19 C30.65 83.07 30.65 83.07 31 85 C28.34 81.86 27.23 78.9 26 75 C20.56 75.46 15.12 75.91 9.69 76.38 C8.89 76.44 8.08 76.51 7.26 76.58 C-2.55 77.41 -12.36 78.25 -22.14 79.44 C-24.09 79.67 -26.04 79.83 -28 80 C-29.13 80.14 -29.13 80.14 -30.27 80.29 C-38.37 80.92 -43.75 77.33 -50.44 73.12 C-51.51 72.47 -52.59 71.82 -53.69 71.15 C-57.51 68.83 -61.28 66.48 -65 64 C-65.99 64 -66.98 64 -68 64 C-71.35 78.31 -74.61 92.64 -77.75 107 C-77.9 107.68 -78.05 108.35 -78.2 109.05 C-79.87 116.69 -81.51 124.33 -83 132 C-82.35 131.98 -81.71 131.97 -81.04 131.95 C-73.65 131.84 -66.51 132.5 -59.19 133.44 C-52.12 134.31 -45.12 135.12 -38 135.44 C-30.64 135.9 -24.75 137.77 -19 142.44 C-12.34 150.97 -12.67 164.13 -11.56 174.5 C-11.44 175.66 -11.31 176.82 -11.18 178.01 C-10.52 184.07 -9.88 190.14 -9.25 196.21 C-8.04 207.72 -6.75 219.21 -5.13 230.67 C-4.07 238.25 -3.17 245.84 -2.31 253.44 C-2.18 254.58 -2.05 255.73 -1.91 256.9 C-1.32 262.3 -0.84 267.57 -1 273 C-6.5 275.19 -11.91 275.67 -17.75 276.19 C-18.71 276.28 -19.67 276.38 -20.65 276.47 C-27.74 277.13 -27.74 277.13 -30 276 C-30.71 273.2 -31.29 270.46 -31.81 267.62 C-31.98 266.75 -32.15 265.87 -32.32 264.96 C-32.89 261.97 -33.45 258.99 -34 256 C-34.2 254.92 -34.4 253.84 -34.61 252.73 C-35.45 248.16 -36.3 243.6 -37.14 239.03 C-38.71 230.47 -40.38 221.93 -42.11 213.4 C-42.32 212.34 -42.32 212.34 -42.54 211.25 C-42.87 209.63 -43.21 208.01 -43.55 206.39 C-43.74 205.51 -43.92 204.63 -44.11 203.73 C-44.27 202.94 -44.44 202.14 -44.61 201.32 C-45.19 197.84 -45.13 194.52 -45 191 C-45.99 191 -46.98 191 -48 191 C-48 223.34 -48 255.68 -48 289 C-53.61 289 -59.22 289 -65 289 C-66.54 287.46 -66.16 286 -66.21 283.85 C-66.23 282.97 -66.25 282.09 -66.27 281.18 C-66.29 279.74 -66.29 279.74 -66.32 278.28 C-66.34 277.3 -66.36 276.33 -66.38 275.32 C-66.44 272.19 -66.5 269.07 -66.56 265.94 C-66.61 263.82 -66.65 261.71 -66.69 259.59 C-66.8 254.39 -66.9 249.2 -67 244 C-79.37 243.98 -91.74 243.96 -104.11 243.95 C-109.85 243.94 -115.59 243.94 -121.34 243.92 C-126.87 243.91 -132.41 243.91 -137.95 243.91 C-140.07 243.9 -142.18 243.9 -144.3 243.89 C-147.26 243.89 -150.21 243.89 -153.17 243.89 C-154.05 243.88 -154.94 243.88 -155.85 243.88 C-159.74 243.5 -159.74 243.5 -163 245 C-163.33 246.45 -163.61 247.92 -163.87 249.39 C-164.03 250.32 -164.19 251.25 -164.36 252.2 C-164.61 253.71 -164.61 253.71 -164.88 255.25 C-165.05 256.27 -165.23 257.29 -165.41 258.35 C-167.14 268.54 -168.6 278.76 -170 289 C-175.61 289 -181.22 289 -187 289 C-187.13 282.78 -186.73 277 -185.69 270.88 C-185.57 270.14 -185.45 269.4 -185.33 268.63 C-184.53 263.75 -183.58 258.91 -182.58 254.07 C-180.77 245.09 -179.38 236.05 -178 227 C-177.5 223.75 -177 220.5 -176.5 217.25 C-176.38 216.47 -176.26 215.68 -176.13 214.87 C-175.14 208.59 -173.87 202.4 -172.45 196.2 C-171.98 192.85 -172.26 190.29 -173 187 C-173.66 187 -174.32 187 -175 187 C-177.12 183.02 -178.58 179.37 -179.58 174.98 C-179.85 173.81 -180.12 172.64 -180.4 171.43 C-180.68 170.18 -180.96 168.92 -181.25 167.62 C-181.55 166.3 -181.86 164.97 -182.16 163.64 C-183.12 159.43 -184.06 155.21 -185 151 C-185.15 150.31 -185.31 149.62 -185.46 148.91 C-188.13 136.88 -190.74 124.83 -193.34 112.79 C-195.45 103.03 -197.61 93.29 -199.88 83.56 C-200.92 79.04 -201.96 74.52 -203 70 C-203.15 69.34 -203.31 68.67 -203.47 67.99 C-204.46 63.7 -205.43 59.41 -206.4 55.12 C-206.71 53.72 -207.03 52.33 -207.35 50.94 C-211.58 32.66 -211.58 32.66 -208.88 24.69 C-205.66 20.07 -201.55 16.35 -196 15 C-189.58 15.35 -185.01 16.87 -180.55 21.59 C-176.4 27.63 -175.64 35.37 -174.25 42.44 C-173.74 44.93 -173.22 47.43 -172.71 49.92 C-172.35 51.65 -171.99 53.39 -171.64 55.12 C-169.9 63.59 -167.99 72.02 -166.07 80.45 C-162.46 96.28 -159.02 112.13 -155.74 128.03 C-153.66 138.06 -151.39 148.04 -149 158 C-146.03 158.33 -143.06 158.66 -140 159 C-140.8 157.74 -141.61 156.48 -142.44 155.19 C-148.42 145.83 -146.84 134.54 -144.68 124.11 C-143.36 118.13 -141.94 112.18 -140.49 106.23 C-138.86 99.51 -137.39 92.75 -135.93 85.99 C-135.5 84 -135.07 82.02 -134.63 80.03 C-133.28 73.9 -131.94 67.76 -130.66 61.62 C-130.07 58.81 -129.47 56.01 -128.87 53.2 C-128.45 51.26 -128.06 49.31 -127.66 47.36 C-124.87 34.53 -120.13 24.93 -108.98 17.69 C-102.37 14.15 -95.32 13.94 -88 15 C-83.68 16.53 -79.9 18.62 -76 21 C-74.81 21.68 -74.81 21.68 -73.59 22.38 C-71.03 23.88 -68.52 25.43 -66 27 C-65.44 27.35 -64.88 27.7 -64.3 28.06 C-63.04 28.85 -61.77 29.64 -60.51 30.43 C-59.16 31.27 -57.82 32.11 -56.47 32.96 C-52.7 35.3 -48.95 37.67 -45.21 40.05 C-43.62 41.06 -42.03 42.06 -40.44 43.06 C-39.7 43.54 -38.96 44.02 -38.2 44.51 C-37.14 45.17 -37.14 45.17 -36.06 45.85 C-35.14 46.44 -35.14 46.44 -34.19 47.04 C-28.45 49.56 -21.75 49.19 -15.57 49.32 C-14.25 49.35 -14.25 49.35 -12.91 49.38 C-10.12 49.44 -7.34 49.5 -4.56 49.56 C-2.67 49.61 -0.77 49.65 1.12 49.69 C5.75 49.8 10.37 49.9 15 50 C14.67 49.37 14.34 48.75 14 48.1 C11.24 42.74 8.98 37.54 7.31 31.75 C6.91 30.41 6.51 29.07 6.11 27.73 C5.75 26.5 5.38 25.27 5 24 C4.62 22.91 4.24 21.82 3.86 20.7 C3 18 3 18 3 15 C2.25 13.3 1.5 11.61 0.74 9.91 C-0.39 6.99 -0.75 4.11 -1 1 C-0.67 0.67 -0.34 0.34 0 0 Z " fill="#F9FCFE" transform="translate(669,328)"/>
<path d="M0 0 C17.32 -0.02 34.65 -0.04 51.97 -0.05 C60.01 -0.06 68.06 -0.06 76.1 -0.08 C83.11 -0.09 90.12 -0.09 97.12 -0.09 C100.84 -0.1 104.55 -0.1 108.26 -0.11 C112.4 -0.11 116.54 -0.11 120.68 -0.11 C121.92 -0.12 123.16 -0.12 124.44 -0.12 C125.56 -0.12 126.68 -0.12 127.83 -0.12 C128.81 -0.12 129.79 -0.12 130.8 -0.12 C133 0 133 0 134 1 C134.1 3.3 134.12 5.61 134.12 7.92 C134.12 9.01 134.12 9.01 134.12 10.13 C134.12 12.6 134.12 15.07 134.11 17.55 C134.11 19.31 134.11 21.07 134.11 22.84 C134.11 27.64 134.11 32.44 134.1 37.25 C134.1 42.26 134.09 47.28 134.09 52.29 C134.09 61.79 134.08 71.29 134.07 80.8 C134.06 91.61 134.06 102.43 134.05 113.24 C134.04 135.49 134.02 157.75 134 180 C116.55 180.02 99.09 180.04 81.64 180.05 C73.53 180.06 65.43 180.06 57.33 180.08 C50.27 180.09 43.21 180.09 36.14 180.09 C32.4 180.1 28.66 180.1 24.92 180.11 C20.75 180.11 16.58 180.11 12.41 180.11 C10.54 180.12 10.54 180.12 8.63 180.12 C7.5 180.12 6.37 180.12 5.21 180.12 C4.22 180.12 3.23 180.12 2.22 180.12 C0 180 0 180 -1 179 C-1.1 176.73 -1.13 174.45 -1.13 172.17 C-1.13 171.09 -1.13 171.09 -1.13 169.99 C-1.14 167.55 -1.13 165.11 -1.13 162.67 C-1.13 160.93 -1.13 159.19 -1.13 157.45 C-1.14 152.71 -1.14 147.96 -1.13 143.22 C-1.13 138.27 -1.13 133.32 -1.14 128.37 C-1.14 120.05 -1.14 111.73 -1.13 103.41 C-1.12 93.78 -1.13 84.15 -1.13 74.53 C-1.14 66.27 -1.14 58.02 -1.13 49.77 C-1.13 44.83 -1.13 39.9 -1.14 34.96 C-1.14 30.32 -1.14 25.68 -1.13 21.04 C-1.13 19.33 -1.13 17.63 -1.13 15.92 C-1.14 13.6 -1.13 11.28 -1.13 8.95 C-1.13 7.65 -1.13 6.35 -1.13 5.01 C-1 2 -1 2 0 0 Z " fill="#FAFDFF" transform="translate(676,435)"/>
<path d="M0 0 C2.93 2.28 4.6 4.59 6 8 C7.53 20.64 3.34 31.78 -2 43 C-2.55 44.22 -3.1 45.44 -3.64 46.66 C-15.66 73.21 -31.92 99.39 -53.5 119.25 C-62.64 128.26 -66.11 144.51 -66.38 157.06 C-66.16 161.65 -65.64 165.7 -64 170 C-59.94 173.05 -53.87 172.69 -49 172 C-30.54 165.37 -19.53 133.94 -11.36 117.74 C-7.73 110.74 -3.23 104.89 2 99 C2.61 98.29 3.23 97.58 3.86 96.85 C11.95 88.1 23.7 79.91 35.75 78.73 C41.58 78.52 46.05 78.83 51 82 C53.03 84.5 54.59 87.11 56 90 C56.55 91.05 56.55 91.05 57.11 92.12 C61.9 107.57 57.1 123.92 50.14 137.77 C45.43 146.68 39.48 154.68 32.23 161.67 C29.76 163.73 29.76 163.73 29.94 166.19 C31.35 168.6 32.39 169.01 35 170 C38.37 170.32 38.37 170.32 42 170.25 C43.83 170.26 43.83 170.26 45.69 170.27 C50.56 169.87 52.25 168.87 55.44 165.19 C55.86 164.65 56.28 164.12 56.72 163.56 C58 162 58 162 60.44 159.69 C68.97 150.74 73.74 138.83 79.01 127.8 C82.98 119.55 87.28 112.2 93 105 C93.69 104.08 94.37 103.15 95.08 102.2 C105.7 88.37 120.02 79.71 137.16 76.61 C146.93 76.03 157.73 80.7 165 87 C168 90.44 168.31 92.43 168 97 C165.52 97.5 165.52 97.5 163 98 C156 89.55 156 89.55 156 86 C149.32 83.77 143.49 84.65 137.26 87.73 C116.51 99.36 102.33 119.46 92.25 140.62 C91.96 141.23 91.66 141.84 91.36 142.47 C88.23 149.2 86.18 155.57 88 163 C89.78 166.71 89.78 166.71 93 169 C94.94 169.31 94.94 169.31 97.12 169.38 C98.21 169.45 98.21 169.45 99.32 169.52 C106.51 168.12 112.09 162.44 117.06 157.38 C117.67 156.75 118.28 156.13 118.91 155.49 C123.81 150.41 127.64 145.23 131 139 C131.4 138.28 131.79 137.56 132.2 136.82 C133.57 134.35 134.91 131.86 136.25 129.38 C136.68 128.59 137.1 127.8 137.54 126.99 C139.96 122.38 141.85 117.87 143.31 112.87 C144.48 109.71 146.08 108.61 149 107 C152.3 105.84 155.62 104.87 159 104 C165.05 110.05 162.24 127.22 162.26 135.27 C162.19 146.06 161.14 156.5 159.28 167.12 C158.93 169.18 158.93 169.18 159 172 C173.51 159.56 182.87 146.99 190.31 129.41 C192.54 124.31 192.54 124.31 195.23 122.52 C195.81 122.35 196.4 122.18 197 122 C198.14 126.03 197.93 128.02 196.04 131.74 C195.59 132.63 195.15 133.53 194.68 134.45 C194.19 135.4 193.7 136.34 193.19 137.31 C192.69 138.29 192.19 139.26 191.68 140.26 C177.55 167.44 177.55 167.44 166.62 175.06 C165.73 175.69 164.84 176.32 163.91 176.97 C162.38 178.04 160.83 179.1 159.23 180.07 C154.08 183.32 152.26 186.72 150.12 192.31 C149.45 193.93 148.77 195.55 148.09 197.17 C147.74 197.98 147.4 198.79 147.05 199.63 C134.16 228.88 110 255.1 80 267 C74.19 268.96 68.6 269.34 62.5 269.31 C61.3 269.34 61.3 269.34 60.07 269.36 C51.61 269.37 44.29 266.78 38 261 C34.38 256.33 34.38 251.18 34.52 245.46 C35.64 237.43 39.78 230.18 46 225 C46.54 224.48 47.08 223.97 47.63 223.44 C57.75 213.95 70 208.34 82.61 203.01 C85.02 201.99 87.42 200.95 89.81 199.89 C97.19 196.68 104.55 193.67 112.25 191.31 C112.89 191.11 113.53 190.91 114.2 190.71 C117.51 189.69 120.82 188.8 124.19 188.01 C131.46 186.31 131.46 186.31 136.75 181.4 C137.86 178.23 138.49 175.32 139 172 C139.16 171.23 139.31 170.46 139.47 169.67 C141.03 161.92 141.63 154.19 142.12 146.31 C142.25 144.38 142.25 144.38 142.39 142.42 C142.6 139.28 142.8 136.14 143 133 C142.34 132.67 141.68 132.34 141 132 C140.78 132.65 140.56 133.3 140.34 133.97 C135.73 144.41 128.07 154.12 120.69 162.75 C120.22 163.3 119.75 163.84 119.27 164.41 C113.56 170.91 107.33 177.3 98.41 178.47 C85.69 178.57 85.69 178.57 80.58 174.61 C75.11 169.04 73.2 163.75 73 156 C72.01 156 71.02 156 70 156 C69.78 156.71 69.55 157.42 69.32 158.15 C65.57 166.24 57.15 172.8 49 176 C41.8 178.4 34.81 177.02 28 174 C26.8 173.12 26.8 173.12 25.58 172.22 C24.3 171.62 24.3 171.62 23 171 C20.14 171.91 20.14 171.91 17.44 173.75 C8.98 178.96 -0.22 179.24 -10 178 C-15.29 176.08 -17.95 172.64 -20.5 167.75 C-22.4 162.86 -22.39 158.18 -22 153 C-22.66 153 -23.32 153 -24 153 C-24.24 153.72 -24.49 154.45 -24.74 155.2 C-27.03 160.3 -31.14 164.02 -35 168 C-35.65 168.68 -36.31 169.36 -36.98 170.06 C-44.8 177.55 -53.34 179.47 -63.96 179.34 C-70.68 178.59 -75.69 176.2 -80 171 C-87.64 156.4 -78.85 134.73 -74.35 120.28 C-71.85 112.39 -69.1 104.67 -66 97 C-65.23 94.94 -64.46 92.88 -63.69 90.81 C-34.48 15.49 -34.48 15.49 -12 2 C-7.83 0.42 -4.47 -0.58 0 0 Z " fill="#F9FCFE" transform="translate(733,737)"/>
<path d="M0 0 C15.45 3.51 33.38 9.36 42.28 23.47 C45.15 28.6 45.8 32.9 45.68 38.72 C45.7 39.86 45.7 39.86 45.73 41.01 C45.66 51.16 39.53 59.21 33.18 66.72 C22.14 77.35 8.5 85.12 -7.03 85.04 C-7.95 85.01 -8.87 84.99 -9.82 84.97 C-10.74 84.97 -11.66 84.96 -12.61 84.96 C-17.98 84.9 -23.25 84.53 -28.58 83.95 C-31.44 83.66 -34.27 83.52 -37.13 83.47 C-38.1 83.45 -39.06 83.42 -40.06 83.39 C-43.35 83.79 -45.22 84.69 -47.82 86.72 C-47.82 87.71 -47.82 88.7 -47.82 89.72 C-41.79 93.23 -35.58 95.56 -28.95 97.6 C-28.14 97.85 -27.33 98.1 -26.49 98.35 C-25.25 98.73 -25.25 98.73 -23.98 99.12 C13.62 110.7 13.62 110.7 22.93 125.79 C23.33 126.41 23.73 127.03 24.14 127.68 C29.57 136.31 29.09 145.78 28.18 155.72 C26.24 163.82 21.69 171.49 16.18 177.72 C15.19 178.05 14.2 178.38 13.18 178.72 C12.89 179.31 12.61 179.89 12.31 180.49 C6.61 191.73 -10.6 198.85 -21.95 202.6 C-53.93 210.86 -97.87 204.36 -126.82 188.72 C-126.82 185.72 -126.82 185.72 -124.44 183.12 C-123.39 182.11 -122.32 181.1 -121.26 180.1 C-116.28 175.25 -111.89 170.36 -107.82 164.72 C-106.83 163.39 -105.85 162.06 -104.86 160.73 C-98.18 151.66 -91.97 142.43 -86.11 132.81 C-84.26 129.81 -82.36 126.83 -80.46 123.86 C-70.98 108.96 -61.97 93.81 -53.26 78.45 C-49.53 71.9 -45.65 65.45 -41.68 59.04 C-38.96 54.63 -36.35 50.18 -33.82 45.66 C-29.64 38.27 -25.03 31.2 -20.37 24.1 C-18.68 21.5 -17 18.89 -15.33 16.27 C-14.75 15.35 -14.16 14.44 -13.56 13.5 C-12.42 11.72 -11.28 9.93 -10.15 8.15 C-9.37 6.93 -9.37 6.93 -8.57 5.7 C-8.11 4.98 -7.65 4.26 -7.18 3.52 C-5.01 0.65 -3.61 -0.36 0 0 Z " fill="#8DBEFC" transform="translate(590.8203125,713.27734375)"/>
<path d="M0 0 C17.32 -0.02 34.65 -0.04 51.97 -0.05 C60.01 -0.06 68.06 -0.06 76.1 -0.08 C83.11 -0.09 90.12 -0.09 97.12 -0.09 C100.84 -0.1 104.55 -0.1 108.26 -0.11 C112.4 -0.11 116.54 -0.11 120.68 -0.11 C121.92 -0.12 123.16 -0.12 124.44 -0.12 C125.56 -0.12 126.68 -0.12 127.83 -0.12 C128.81 -0.12 129.79 -0.12 130.8 -0.12 C133 0 133 0 134 1 C134.1 3.3 134.12 5.61 134.12 7.92 C134.12 9.01 134.12 9.01 134.12 10.13 C134.12 12.6 134.12 15.07 134.11 17.55 C134.11 19.31 134.11 21.07 134.11 22.84 C134.11 27.64 134.11 32.44 134.1 37.25 C134.1 42.26 134.09 47.28 134.09 52.29 C134.09 61.79 134.08 71.29 134.07 80.8 C134.06 91.61 134.06 102.43 134.05 113.24 C134.04 135.49 134.02 157.75 134 180 C116.55 180.02 99.09 180.04 81.64 180.05 C73.53 180.06 65.43 180.06 57.33 180.08 C50.27 180.09 43.21 180.09 36.14 180.09 C32.4 180.1 28.66 180.1 24.92 180.11 C20.75 180.11 16.58 180.11 12.41 180.11 C10.54 180.12 10.54 180.12 8.63 180.12 C7.5 180.12 6.37 180.12 5.21 180.12 C4.22 180.12 3.23 180.12 2.22 180.12 C0 180 0 180 -1 179 C-1.1 176.73 -1.13 174.45 -1.13 172.17 C-1.13 171.09 -1.13 171.09 -1.13 169.99 C-1.14 167.55 -1.13 165.11 -1.13 162.67 C-1.13 160.93 -1.13 159.19 -1.13 157.45 C-1.14 152.71 -1.14 147.96 -1.13 143.22 C-1.13 138.27 -1.13 133.32 -1.14 128.37 C-1.14 120.05 -1.14 111.73 -1.13 103.41 C-1.12 93.78 -1.13 84.15 -1.13 74.53 C-1.14 66.27 -1.14 58.02 -1.13 49.77 C-1.13 44.83 -1.13 39.9 -1.14 34.96 C-1.14 30.32 -1.14 25.68 -1.13 21.04 C-1.13 19.33 -1.13 17.63 -1.13 15.92 C-1.14 13.6 -1.13 11.28 -1.13 8.95 C-1.13 7.65 -1.13 6.35 -1.13 5.01 C-1 2 -1 2 0 0 Z M18 22 C17.7 24.42 17.7 24.42 17.75 27.28 C17.75 28.4 17.74 29.52 17.74 30.68 C17.75 31.91 17.75 33.15 17.76 34.42 C17.76 35.72 17.75 37.01 17.75 38.35 C17.75 41.91 17.75 45.47 17.76 49.03 C17.77 52.75 17.77 56.46 17.77 60.18 C17.77 66.43 17.78 72.67 17.79 78.92 C17.81 86.15 17.82 93.38 17.81 100.61 C17.81 107.55 17.82 114.5 17.83 121.44 C17.83 124.4 17.83 127.36 17.83 130.32 C17.83 134.45 17.84 138.58 17.85 142.71 C17.85 143.95 17.85 145.18 17.85 146.46 C17.86 147.58 17.86 148.69 17.87 149.84 C17.87 150.82 17.87 151.8 17.87 152.81 C17.75 154.98 17.75 154.98 19 156 C21.95 156.1 24.88 156.13 27.83 156.11 C28.76 156.11 29.69 156.11 30.64 156.11 C33.72 156.11 36.8 156.11 39.88 156.1 C42.01 156.1 44.14 156.09 46.26 156.09 C51.88 156.09 57.49 156.08 63.11 156.07 C68.83 156.06 74.56 156.05 80.28 156.05 C91.52 156.04 102.76 156.02 114 156 C114.02 138.42 114.04 120.83 114.05 103.25 C114.06 95.08 114.06 86.92 114.08 78.75 C114.09 71.64 114.09 64.53 114.09 57.41 C114.1 53.64 114.1 49.88 114.11 46.11 C114.11 41.91 114.11 37.71 114.11 33.51 C114.12 31.62 114.12 31.62 114.12 29.69 C114.12 27.99 114.12 27.99 114.12 26.25 C114.12 25.25 114.12 24.26 114.12 23.23 C114.25 21.03 114.25 21.03 113 20 C110.12 19.89 107.26 19.85 104.38 19.85 C103.48 19.85 102.57 19.85 101.64 19.84 C98.64 19.84 95.63 19.83 92.63 19.83 C90.55 19.83 88.47 19.83 86.39 19.82 C82.03 19.82 77.66 19.81 73.3 19.81 C67.7 19.81 62.09 19.8 56.49 19.78 C52.19 19.77 47.9 19.77 43.6 19.77 C41.54 19.77 39.47 19.77 37.4 19.76 C34.52 19.75 31.63 19.75 28.75 19.76 C27.46 19.75 27.46 19.75 26.14 19.74 C21.59 19.56 21.59 19.56 18 22 Z " fill="#FAFDFF" transform="translate(676,435)"/>
<path d="M0 0 C7.44 6.03 13.17 13.93 14.7 23.53 C15.8 34.91 14.59 44.53 7.39 53.71 C1.14 60.57 -5.64 64.93 -15.02 65.66 C-27.36 66.18 -35.89 63.87 -45.66 56.1 C-52.5 49.7 -56.81 40.6 -57.23 31.16 C-56.52 19.65 -51.51 10.82 -43.34 3 C-30.8 -7.83 -14 -9.34 0 0 Z " fill="#FAFDFF" transform="translate(632.6640625,277.77734375)"/>
<path d="M0 0 C1.53 -0.02 3.07 -0.01 4.6 0.02 C5.44 0.02 6.28 0.02 7.14 0.02 C9.91 0.02 12.68 0.05 15.45 0.08 C17.37 0.09 19.29 0.1 21.22 0.1 C25.24 0.11 29.27 0.14 33.3 0.18 C38.47 0.23 43.64 0.25 48.82 0.27 C53.74 0.28 58.66 0.31 63.58 0.33 C64.52 0.34 65.47 0.34 66.44 0.35 C69.1 0.37 71.76 0.39 74.42 0.42 C75.61 0.42 75.61 0.42 76.83 0.43 C82.27 0.49 82.27 0.49 83.38 1.61 C83.38 13.16 83.38 24.71 83.38 36.61 C52.36 36.61 21.34 36.61 -10.62 36.61 C-11.9 32.78 -11.17 30.67 -10.31 26.73 C-9 20.65 -8 14.59 -7.24 8.41 C-6.13 3.41 -5.36 0.9 0 0 Z " fill="#8DBEFC" transform="translate(519.6189270019531,519.3919982910156)"/>
<path d="M0 0 C-6.34 12.34 -12.93 24.42 -22 35 C-22.49 35.6 -22.98 36.19 -23.49 36.81 C-25.28 38.92 -27.13 40.96 -29 43 C-29.5 43.56 -30.01 44.12 -30.52 44.7 C-39.44 54.51 -47.82 60.81 -60 66 C-61.04 66.54 -62.08 67.08 -63.15 67.64 C-68.05 69.98 -72.55 70.18 -77.94 70.25 C-79.12 70.28 -80.31 70.3 -81.53 70.33 C-86.31 69.88 -89.65 68.39 -93 64.94 C-94.89 59.38 -93.06 54.37 -90.73 49.15 C-76.65 22.15 -40.87 12.73 -14 3 C-13.07 2.66 -12.15 2.32 -11.2 1.97 C-7.3 0.59 -4.11 -0.13 0 0 Z " fill="#8DBEFC" transform="translate(867,930)"/>
<path d="M0 0 C3.37 2.97 5.26 6.61 5.66 11.06 C5.69 12.52 5.67 13.98 5.62 15.44 C5.61 16.23 5.59 17.01 5.57 17.82 C4.85 34.24 -3.18 47.93 -11 62 C-11.29 61.41 -11.59 60.81 -11.89 60.2 C-13.41 57.2 -14.86 54.62 -17 52 C-20.12 51.48 -22.17 51.76 -25.19 52.62 C-27.97 54.74 -28.81 56.72 -30 60 C-30.62 64.64 -30.42 68.55 -28.44 72.81 C-27 76 -27 76 -26.88 78.19 C-29.24 82 -33.89 83.63 -38 85 C-43.7 85.54 -46.55 84.6 -51 81 C-54.66 73.67 -52.13 62.79 -49.69 55.38 C-42.52 34.87 -30.56 11.24 -10.62 0.75 C-6.93 -0.31 -3.79 -0.89 0 0 Z " fill="#8DBEFC" transform="translate(779,825)"/>
<path d="M0 0 C1.11 0 2.22 0 3.36 0 C4.64 -0 5.91 -0.01 7.22 -0.01 C8.64 -0.01 10.05 0 11.47 0.01 C12.96 0 14.44 0 15.93 0 C19.97 -0 24.02 0 28.06 0.01 C32.28 0.02 36.51 0.02 40.73 0.02 C47.82 0.02 54.92 0.03 62.01 0.04 C70.22 0.06 78.43 0.06 86.64 0.06 C94.53 0.06 102.42 0.07 110.3 0.08 C113.66 0.08 117.03 0.08 120.39 0.08 C124.34 0.08 128.3 0.09 132.26 0.1 C133.71 0.1 135.17 0.1 136.62 0.1 C138.6 0.1 140.58 0.11 142.56 0.12 C143.67 0.12 144.78 0.12 145.92 0.12 C148.4 0.25 148.4 0.25 149.4 1.25 C149.47 3.78 149.49 6.28 149.46 8.81 C149.46 9.52 149.45 10.23 149.45 10.97 C149.44 12.73 149.42 14.49 149.4 16.25 C129.47 16.27 109.54 16.29 89.6 16.3 C80.35 16.31 71.1 16.31 61.84 16.32 C53.78 16.33 45.72 16.34 37.65 16.34 C33.38 16.34 29.11 16.35 24.84 16.35 C20.82 16.36 16.81 16.36 12.79 16.36 C11.31 16.36 9.83 16.36 8.36 16.37 C6.35 16.37 4.34 16.37 2.33 16.37 C1.2 16.37 0.07 16.37 -1.09 16.37 C-3.6 16.25 -3.6 16.25 -4.6 15.25 C-4.73 13.11 -4.78 10.96 -4.79 8.81 C-4.8 7.64 -4.82 6.46 -4.83 5.25 C-4.54 1.4 -3.9 0.37 0 0 Z " fill="#FAFDFF" transform="translate(669.6015253067017,415.7511110305786)"/>
<path d="M0 0 C1.12 0.51 2.25 1.03 3.41 1.56 C4.98 2.31 4.98 2.31 6.59 3.07 C7.53 3.51 8.48 3.96 9.45 4.41 C11.62 5.88 11.62 5.88 12.44 8.05 C12.5 8.65 12.56 9.25 12.62 9.88 C-4.86 21.82 -22.91 26.97 -44.09 24.57 C-52.06 23.03 -57.65 19.48 -62.38 12.88 C-64.64 8.77 -65.32 4.48 -64.38 -0.12 C-61.24 -6.5 -57.12 -11.46 -50.56 -14.38 C-33.58 -18.37 -14.91 -6.97 0 0 Z " fill="#8DBEFC" transform="translate(428.375,893.125)"/>
<path d="M0 0 C0.92 0.01 1.83 0.01 2.78 0.02 C3.74 0.02 4.71 0.01 5.7 0.01 C8.9 0.01 12.1 0.02 15.3 0.03 C17.51 0.03 19.72 0.03 21.94 0.03 C26.58 0.03 31.23 0.04 35.87 0.05 C41.84 0.07 47.81 0.07 53.78 0.07 C58.35 0.07 62.92 0.08 67.5 0.09 C69.7 0.09 71.9 0.09 74.1 0.09 C77.17 0.1 80.24 0.1 83.31 0.11 C84.23 0.11 85.15 0.11 86.09 0.11 C92.37 0.15 92.37 0.15 93.48 1.26 C93.58 3.08 93.6 4.91 93.6 6.73 C93.6 8.51 93.6 8.51 93.6 10.33 C93.6 12.3 93.6 12.3 93.59 14.32 C93.59 15.71 93.59 17.1 93.59 18.48 C93.59 22.27 93.59 26.05 93.58 29.83 C93.57 33.78 93.57 37.73 93.57 41.68 C93.57 49.16 93.56 56.65 93.55 64.13 C93.54 72.65 93.53 81.17 93.53 89.68 C93.52 107.21 93.5 124.73 93.48 142.26 C80.33 142.28 67.18 142.3 54.03 142.31 C47.92 142.32 41.81 142.32 35.71 142.34 C29.82 142.35 23.93 142.35 18.04 142.35 C15.79 142.36 13.54 142.36 11.29 142.37 C8.15 142.37 5.01 142.37 1.86 142.37 C0.92 142.38 -0.02 142.38 -0.99 142.38 C-7.41 142.37 -7.41 142.37 -8.52 141.26 C-8.62 139.47 -8.65 137.67 -8.65 135.88 C-8.66 134.12 -8.66 134.12 -8.67 132.34 C-8.67 131.04 -8.67 129.75 -8.67 128.42 C-8.67 127.05 -8.67 125.69 -8.68 124.32 C-8.68 120.6 -8.69 116.88 -8.69 113.16 C-8.69 110.05 -8.69 106.95 -8.7 103.85 C-8.7 96.54 -8.71 89.22 -8.71 81.91 C-8.71 74.35 -8.72 66.79 -8.73 59.24 C-8.74 52.76 -8.75 46.28 -8.75 39.8 C-8.75 35.93 -8.75 32.06 -8.76 28.18 C-8.77 24.54 -8.77 20.9 -8.76 17.26 C-8.76 15.28 -8.77 13.3 -8.78 11.32 C-8.78 10.15 -8.77 8.98 -8.77 7.77 C-8.77 6.75 -8.77 5.73 -8.77 4.67 C-8.21 -0.71 -4.53 0.02 0 0 Z M-5.52 5.26 C-5.82 7.68 -5.82 7.68 -5.77 10.54 C-5.77 11.66 -5.78 12.78 -5.78 13.94 C-5.77 15.17 -5.77 16.41 -5.76 17.68 C-5.77 18.98 -5.77 20.27 -5.77 21.61 C-5.77 25.17 -5.77 28.73 -5.76 32.29 C-5.75 36.01 -5.75 39.72 -5.75 43.44 C-5.75 49.69 -5.74 55.93 -5.73 62.18 C-5.71 69.41 -5.71 76.64 -5.71 83.87 C-5.71 90.81 -5.7 97.76 -5.69 104.7 C-5.69 107.66 -5.69 110.62 -5.69 113.58 C-5.69 117.71 -5.68 121.84 -5.67 125.97 C-5.67 127.21 -5.67 128.44 -5.67 129.72 C-5.66 130.83 -5.66 131.95 -5.65 133.1 C-5.65 134.08 -5.65 135.06 -5.65 136.07 C-5.77 138.24 -5.77 138.24 -4.52 139.26 C-1.57 139.36 1.36 139.39 4.31 139.37 C5.24 139.37 6.17 139.37 7.12 139.37 C10.2 139.37 13.28 139.37 16.36 139.36 C18.49 139.36 20.62 139.35 22.74 139.35 C28.36 139.35 33.97 139.34 39.59 139.33 C45.31 139.32 51.03 139.31 56.76 139.31 C68 139.3 79.24 139.28 90.48 139.26 C90.5 121.68 90.52 104.09 90.53 86.51 C90.54 78.34 90.54 70.18 90.56 62.01 C90.56 54.9 90.57 47.79 90.57 40.67 C90.57 36.9 90.58 33.14 90.59 29.37 C90.59 25.17 90.59 20.97 90.59 16.77 C90.6 14.88 90.6 14.88 90.6 12.95 C90.6 11.25 90.6 11.25 90.6 9.51 C90.6 8.51 90.6 7.52 90.6 6.49 C90.73 4.29 90.73 4.29 89.48 3.26 C86.6 3.15 83.74 3.11 80.86 3.11 C79.96 3.11 79.05 3.11 78.12 3.1 C75.12 3.09 72.11 3.09 69.11 3.09 C67.03 3.09 64.95 3.09 62.87 3.08 C58.51 3.08 54.14 3.07 49.78 3.07 C44.18 3.07 38.57 3.06 32.97 3.04 C28.67 3.03 24.38 3.03 20.08 3.03 C18.02 3.03 15.95 3.03 13.88 3.02 C11 3.01 8.11 3.01 5.23 3.02 C3.94 3.01 3.94 3.01 2.62 3 C-1.93 2.82 -1.93 2.82 -5.52 5.26 Z " fill="#8DBEFC" transform="translate(699.5204010009766,451.74005126953125)"/>
<path d="M0 0 C0.99 0.33 1.98 0.66 3 1 C6.27 33.01 -24.33 69.26 -43 93 C-44.31 94.69 -45.63 96.37 -46.94 98.06 C-47.96 99.38 -48.98 100.69 -50 102 C-52.71 93.88 -43.9 80.46 -40.5 72.88 C-40.14 72.08 -39.79 71.28 -39.42 70.45 C-14.03 13.7 -14.03 13.7 0 0 Z " fill="#8DBEFC" transform="translate(729,749)"/>
<path d="M0 0 C0.33 0 0.66 0 1 0 C1.15 1.12 1.15 1.12 1.3 2.27 C1.45 3.25 1.6 4.24 1.75 5.25 C1.89 6.22 2.03 7.2 2.17 8.2 C2.78 11.12 2.78 11.12 5.06 12.91 C7.34 15.37 7.44 16.84 7.4 20.13 C7.37 20.83 7.34 21.53 7.31 22.25 C7.3 22.99 7.28 23.74 7.27 24.51 C7.2 27.34 7.1 30.17 7 33 C6.94 35.04 6.88 37.08 6.82 39.11 C6.58 47.74 6.3 56.37 6 65 C4.02 65.03 2.04 65.05 0.06 65.06 C-1.04 65.07 -2.14 65.09 -3.28 65.1 C-6 65 -6 65 -7 64 C-7.14 62.52 -7.22 61.03 -7.27 59.54 C-7.3 58.6 -7.33 57.65 -7.37 56.67 C-7.4 55.64 -7.43 54.61 -7.46 53.54 C-7.49 52.49 -7.52 51.43 -7.55 50.35 C-7.61 48.11 -7.67 45.87 -7.72 43.64 C-7.81 40.21 -7.93 36.79 -8.04 33.37 C-8.1 31.2 -8.15 29.03 -8.21 26.86 C-8.25 25.83 -8.29 24.8 -8.33 23.75 C-8.45 16.64 -8.45 16.64 -6.11 13.32 C-4 12 -4 12 -2 12 C-2.34 10.7 -2.34 10.7 -2.69 9.38 C-3.06 5.32 -2.05 3.45 0 0 Z " fill="#FAFDFF" transform="translate(774,349)"/>
<path d="M0 0 C2.05 0.03 4.1 0.07 6.15 0.1 C6.49 1.24 6.49 1.24 6.84 2.41 C8.43 5.67 10.02 6.41 13.15 8.1 C14.52 10.84 14.28 13.1 14.28 16.16 C14.28 17.79 14.28 17.79 14.29 19.45 C14.15 22.1 14.15 22.1 13.15 23.1 C9.7 23.35 6.24 23.28 2.78 23.29 C1.81 23.3 0.83 23.31 -0.17 23.32 C-1.57 23.33 -1.57 23.33 -3 23.33 C-4.28 23.33 -4.28 23.33 -5.6 23.34 C-7.85 23.1 -7.85 23.1 -10.85 21.1 C-11.5 17.74 -11.36 14.48 -10.85 11.1 C-8.96 8.52 -7.65 7.5 -4.85 6.1 C-4.15 4.45 -3.48 2.78 -2.85 1.1 C-1.85 0.1 -1.85 0.1 0 0 Z " fill="#FAFDFF" transform="translate(746.84765625,389.90234375)"/>
<path d="M0 0 C1.48 0.02 1.48 0.02 3 0.04 C3.99 0.05 4.98 0.06 6 0.06 C8.43 0.23 8.43 0.23 9.43 1.23 C9.47 3.56 9.48 5.9 9.43 8.23 C7.29 8.26 5.14 8.28 3 8.29 C1.8 8.3 0.61 8.32 -0.62 8.33 C-3.57 8.23 -3.57 8.23 -4.57 7.23 C-4.75 4.79 -4.75 4.79 -4.57 2.23 C-2.57 0.23 -2.57 0.23 0 0 Z " fill="#8DBEFC" transform="translate(745.56640625,400.76953125)"/>
<path d="M0 0 C0.33 0 0.66 0 1 0 C1.66 4.29 2.32 8.58 3 13 C1.35 13 -0.3 13 -2 13 C-3.2 7.55 -2.91 4.78 0 0 Z " fill="#EEF6FE" transform="translate(774,349)"/>
</svg>
