<?xml version="1.0" encoding="UTF-8"?>
<!-- Generator: visioncortex VTracer 0.6.3 -->
<svg version="1.1" xmlns="http://www.w3.org/2000/svg" width="1280" height="1280">
<path d="M0 0 C3.12 3.12 3.12 5.11 3.13 9.44 C3.13 10.2 3.13 10.97 3.12 11.76 C3.12 12.57 3.13 13.39 3.13 14.23 C3.13 16.98 3.12 19.74 3.12 22.5 C3.12 24.49 3.12 26.47 3.12 28.46 C3.13 33.94 3.12 39.42 3.12 44.9 C3.11 50.8 3.11 56.7 3.11 62.6 C3.11 73.5 3.11 84.4 3.1 95.29 C3.1 105.36 3.1 115.42 3.09 125.49 C3.09 126.16 3.09 126.82 3.09 127.51 C3.09 130.9 3.09 134.28 3.09 137.67 C3.09 161.66 3.08 185.66 3.08 209.66 C3.07 232.97 3.06 256.29 3.05 279.6 C3.05 280.32 3.05 281.04 3.05 281.78 C3.05 289 3.05 296.21 3.05 303.42 C3.05 318.12 3.05 332.82 3.04 347.51 C3.04 348.19 3.04 348.87 3.04 349.56 C3.03 394.71 3.02 439.85 3 485 C2.01 485 1.02 485 0 485 C-0.27 485.59 -0.54 486.19 -0.81 486.8 C-2.01 489.01 -3.2 490.45 -4.97 492.21 C-5.58 492.83 -6.19 493.44 -6.82 494.08 C-7.83 495.08 -7.83 495.08 -8.86 496.1 C-9.58 496.81 -10.29 497.53 -11.03 498.27 C-13.43 500.67 -15.84 503.06 -18.24 505.46 C-19.96 507.17 -21.68 508.89 -23.4 510.61 C-27.11 514.31 -30.82 518.01 -34.53 521.71 C-39.9 527.06 -45.26 532.41 -50.63 537.77 C-59.33 546.47 -68.04 555.16 -76.75 563.85 C-77.54 564.63 -77.54 564.63 -78.33 565.43 C-79.12 566.21 -79.12 566.21 -79.92 567 C-87.32 574.38 -94.72 581.77 -102.12 589.15 C-102.64 589.67 -103.16 590.19 -103.69 590.72 C-112.37 599.38 -121.04 608.04 -129.72 616.71 C-135.07 622.05 -140.42 627.39 -145.78 632.73 C-149.88 636.82 -153.98 640.91 -158.08 645 C-159.76 646.68 -161.44 648.36 -163.13 650.04 C-165.42 652.32 -167.72 654.61 -170.01 656.9 C-171.02 657.9 -171.02 657.9 -172.04 658.92 C-174.93 661.81 -177.69 664.61 -180 668 C-179.34 668.66 -178.68 669.32 -178 670 C-178.33 670.66 -178.66 671.32 -179 672 C-178.34 672 -177.68 672 -177 672 C-176.77 672.72 -176.55 673.44 -176.31 674.19 C-173.88 679.39 -169.41 682.5 -165 686 C-161.81 689 -158.85 691.98 -157.12 696.06 C-156.1 698.19 -156.1 698.19 -153.72 699.35 C-150.87 701.08 -148.78 702.96 -146.43 705.31 C-145.59 706.14 -144.76 706.97 -143.9 707.82 C-143.05 708.69 -142.19 709.55 -141.31 710.44 C-140.01 711.73 -140.01 711.73 -138.69 713.04 C-137.86 713.87 -137.03 714.7 -136.18 715.56 C-135.42 716.31 -134.67 717.07 -133.89 717.85 C-132.13 719.85 -131.16 721.63 -130 724 C-128.68 724.37 -127.34 724.7 -126 725 C-124.47 726.45 -124.47 726.45 -123.06 728.25 C-122.55 728.88 -122.03 729.51 -121.5 730.15 C-121.01 730.76 -120.51 731.37 -120 732 C-116.49 735.95 -114.04 737.51 -109 739 C-108.67 739.66 -108.34 740.32 -108 741 C-103.95 739.38 -101.23 736.51 -98.22 733.46 C-97.64 732.89 -97.07 732.31 -96.47 731.72 C-94.53 729.78 -92.6 727.84 -90.66 725.9 C-89.26 724.5 -87.86 723.1 -86.46 721.7 C-82.6 717.84 -78.75 713.98 -74.9 710.12 C-70.76 705.96 -66.6 701.81 -62.45 697.65 C-55.25 690.45 -48.05 683.25 -40.86 676.04 C-33.31 668.48 -25.76 660.92 -18.21 653.36 C-17.74 652.89 -17.27 652.42 -16.79 651.94 C-14.4 649.55 -12.02 647.17 -9.63 644.78 C7.26 627.88 24.14 610.98 41.03 594.07 C42.05 593.04 43.07 592.02 44.09 591 C44.6 590.49 45.1 589.99 45.63 589.46 C48.19 586.9 50.75 584.34 53.31 581.77 C53.81 581.27 54.32 580.76 54.84 580.23 C66.64 568.42 78.44 556.61 90.23 544.8 C90.99 544.04 90.99 544.04 91.76 543.27 C103.3 531.72 114.83 520.18 126.37 508.63 C126.85 508.15 127.33 507.67 127.83 507.17 C132.19 502.81 136.55 498.44 140.9 494.08 C152.25 482.73 163.59 471.38 174.93 460.02 C182.04 452.9 189.15 445.78 196.26 438.66 C200.37 434.55 204.48 430.44 208.59 426.32 C212.34 422.56 216.09 418.8 219.85 415.04 C221.21 413.68 222.58 412.31 223.94 410.95 C225.78 409.1 227.63 407.26 229.47 405.41 C230.01 404.87 230.55 404.33 231.1 403.77 C235.64 399.25 237.59 398.88 243.99 398.88 C245.09 398.88 245.09 398.88 246.21 398.87 C248.69 398.87 251.16 398.88 253.64 398.88 C255.42 398.88 257.21 398.88 258.99 398.88 C263.91 398.87 268.83 398.88 273.75 398.88 C279.05 398.89 284.35 398.89 289.65 398.89 C298.84 398.89 308.03 398.89 317.22 398.89 C330.5 398.9 343.78 398.91 357.07 398.91 C378.62 398.91 400.17 398.92 421.72 398.92 C442.66 398.93 463.6 398.94 484.54 398.95 C485.83 398.95 487.12 398.95 488.45 398.95 C494.92 398.95 501.39 398.95 507.86 398.95 C561.57 398.96 615.29 398.98 669 399 C669.61 400.87 669.61 400.87 670 403 C668.19 405 668.19 405 666 407 C664.62 409.3 663.87 411.42 663.06 414 C662.04 416.88 661.06 418.77 659 421 C658.34 421 657.68 421 657 421 C657 422.98 657 424.96 657 427 C655.68 427.66 654.36 428.32 653 429 C653 430.65 653 432.3 653 434 C651.68 434 650.36 434 649 434 C648.89 434.61 648.78 435.23 648.67 435.86 C648.51 436.67 648.35 437.48 648.19 438.31 C647.96 439.51 647.96 439.51 647.73 440.74 C646.91 443.26 646.08 444.38 644 446 C643.34 446 642.68 446 642 446 C641.67 448.31 641.34 450.62 641 453 C640.01 453.33 639.02 453.66 638 454 C636.78 456.5 636.78 456.5 636 459 C635.34 459 634.68 459 634 459 C634 459.66 634 460.32 634 461 C633.34 461 632.68 461 632 461 C632.33 461.99 632.66 462.98 633 464 C632.34 464.33 631.68 464.66 631 465 C630.34 464.67 629.68 464.34 629 464 C629.33 464.99 629.66 465.98 630 467 C629.12 469 629.12 469 628 471 C627.67 471.99 627.34 472.98 627 474 C626.01 474 625.02 474 624 474 C624 474.66 624 475.32 624 476 C623.34 476 622.68 476 622 476 C622.33 477.65 622.66 479.3 623 481 C622.67 480.34 622.34 479.68 622 479 C619.12 481.88 618.27 485.18 617 489 C616.01 489 615.02 489 614 489 C614 489.66 614 490.32 614 491 C613.34 491 612.68 491 612 491 C612.33 492.65 612.66 494.3 613 496 C612.67 495.34 612.34 494.68 612 494 C609.12 496.88 608.27 500.18 607 504 C606.01 504 605.02 504 604 504 C604 504.66 604 505.32 604 506 C603.34 506 602.68 506 602 506 C602.33 507.65 602.66 509.3 603 511 C602.67 510.34 602.34 509.68 602 509 C599.99 511.01 599.1 512.59 597.88 515.12 C597.52 515.85 597.17 516.57 596.8 517.32 C596.54 517.87 596.27 518.43 596 519 C595.34 519 594.68 519 594 519 C594 519.66 594 520.32 594 521 C593.34 521 592.68 521 592 521 C592.33 521.99 592.66 522.98 593 524 C592.34 524.33 591.68 524.66 591 525 C590.34 524.67 589.68 524.34 589 524 C588.9 524.61 588.8 525.23 588.7 525.86 C587.46 532.6 587.46 532.6 584.88 534.88 C584.26 535.25 583.64 535.62 583 536 C583 536.99 583 537.98 583 539 C582.34 539 581.68 539 581 539 C580.67 539.99 580.34 540.98 580 542 C579.34 542.33 578.68 542.66 578 543 C575.95 544.84 575.95 544.84 575 547 C571.39 553.74 571.39 553.74 568 556 C567.86 556.64 567.71 557.28 567.56 557.94 C566.8 560.75 565.37 561.39 563 563 C560.46 565.03 559.84 566.38 558.56 569.5 C556.98 573.04 556.05 573.9 553 576 C553 576.99 553 577.98 553 579 C552.34 579 551.68 579 551 579 C550.67 579.99 550.34 580.98 550 582 C549.34 582 548.68 582 548 582 C547.75 582.74 547.5 583.49 547.25 584.25 C545.91 587.21 544.31 588.77 542 591 C542 591.66 542 592.32 542 593 C540.5 594.44 540.5 594.44 538.56 596 C535.85 598.15 535.85 598.15 534 601 C533.34 601 532.68 601 532 601 C532.33 602.32 532.66 603.64 533 605 C532.22 605.23 531.43 605.45 530.62 605.69 C527.78 606.78 527.78 606.78 526.69 609.62 C526.46 610.41 526.23 611.19 526 612 C524.68 611.67 523.36 611.34 522 611 C522.33 611.99 522.66 612.98 523 614 C522.72 616.68 522.23 617.77 520.33 619.71 C519.64 620.26 518.96 620.81 518.25 621.38 C515.59 623.58 513.27 625.72 511.12 628.44 C510.42 629.28 509.72 630.13 509 631 C508.34 631 507.68 631 507 631 C507.33 632.32 507.66 633.64 508 635 C507.55 635.36 507.11 635.73 506.64 636.1 C502.6 639.47 499.29 642.9 496 647 C494.86 648.11 494.86 648.11 493.69 649.25 C491.77 650.83 491.77 650.83 492 653 C488.06 657.24 483.69 661.05 479.37 664.89 C476.94 667.09 474.79 669.27 472.75 671.84 C472.18 672.56 471.6 673.27 471 674 C470.34 674 469.68 674 469 674 C468.91 674.74 468.82 675.48 468.73 676.24 C467.87 679.49 466.74 680.76 464.39 683.13 C463.24 684.3 463.24 684.3 462.07 685.49 C461.24 686.31 460.4 687.14 459.55 687.98 C458.69 688.84 457.84 689.7 456.96 690.58 C455.16 692.39 453.35 694.19 451.54 695.98 C448.76 698.74 446.01 701.51 443.25 704.29 C441.5 706.05 439.74 707.8 437.98 709.55 C437.16 710.38 436.34 711.21 435.49 712.07 C434.32 713.22 434.32 713.22 433.13 714.39 C432.45 715.06 431.77 715.74 431.08 716.43 C428.7 718.23 426.9 718.52 424 719 C422.93 720.8 422.93 720.8 422 723 C418.72 726.67 415.08 729.5 411.12 732.38 C408.19 734.62 405.53 737.13 402.86 739.68 C401 741 401 741 397 741 C397 741.66 397 742.32 397 743 C396.34 743 395.68 743 395 743 C394.34 744.32 393.68 745.64 393 747 C392.01 747 391.02 747 390 747 C389.24 747.76 388.47 748.53 387.69 749.31 C384.92 752.08 382.62 753.55 379 755 C378.34 754.67 377.68 754.34 377 754 C377.33 754.99 377.66 755.98 378 757 C377.13 757.15 377.13 757.15 376.25 757.31 C373.9 757.89 373.9 757.89 371.94 759.56 C370 761 370 761 367 761 C366.67 761.99 366.34 762.98 366 764 C362.44 765.19 362.44 765.19 359 766 C359 766.66 359 767.32 359 768 C357.35 768.33 355.7 768.66 354 769 C353.67 769.99 353.34 770.98 353 772 C351.68 772.37 350.34 772.69 349 773 C348.38 773.47 347.76 773.95 347.12 774.44 C344.56 776.33 342.01 777 339 778 C338.34 778.49 337.68 778.99 337 779.5 C334.5 781.38 331.96 782.01 329 783 C328.34 783.49 327.68 783.99 327 784.5 C324.5 786.38 321.96 787.01 319 788 C318.34 788.49 317.68 788.99 317 789.5 C314.47 791.4 312.01 792.06 309 793 C307.77 793.51 306.54 794.03 305.31 794.56 C302 796 302 796 299 797 C298.34 796.67 297.68 796.34 297 796 C297 796.66 297 797.32 297 798 C291 800 291 800 288.12 800.94 C285.77 801.74 283.45 802.57 281.12 803.44 C280.09 803.82 280.09 803.82 279.04 804.22 C277.18 804.93 275.34 805.68 273.5 806.44 C268.65 808.28 263.59 809.39 258.55 810.55 C255.2 811.34 252.89 812.07 250 814 C248.01 814.37 246.01 814.7 244 815 C243.34 815.33 242.68 815.66 242 816 C240.91 815.96 239.81 815.92 238.69 815.88 C235.04 815.7 235.04 815.7 232.5 817.5 C229.22 819.47 226.77 819.07 223 819 C222.04 819.49 222.04 819.49 221.07 820 C218.64 821.18 217.12 821.15 214.44 821 C210.81 820.8 210.21 820.86 207 823 C205.01 823.39 203.01 823.73 201 824 C201 824.33 201 824.66 201 825 C186.48 825.33 171.96 825.66 157 826 C157 826.66 157 827.32 157 828 C139.84 828 122.68 828 105 828 C105 827.34 105 826.68 105 826 C103.61 826.02 103.61 826.02 102.19 826.04 C100.4 826.05 100.4 826.05 98.56 826.06 C97.37 826.07 96.17 826.09 94.94 826.1 C92 826 92 826 91 825 C87.73 825.01 84.47 825.13 81.2 825.26 C77.65 824.97 76.64 824.24 74 822 C71.2 821.03 68.75 820.91 65.81 821 C62.56 821.03 59.36 820.96 56.12 820.69 C55.05 820.6 55.05 820.6 53.95 820.51 C52 820 52 820 50.53 818.49 C48.51 816.52 47.21 816.58 44.44 816.44 C40.21 816.21 40.21 816.21 38 814 C35.67 813.65 33.34 813.32 31 813 C30.24 812.67 29.47 812.34 28.69 812 C24.58 810.47 20.35 810.32 16 810 C15.67 809.01 15.34 808.02 15 807 C10.38 806.34 5.76 805.68 1 805 C0.67 804.01 0.34 803.02 0 802 C-0.97 801.88 -1.94 801.75 -2.94 801.62 C-3.95 801.42 -4.96 801.21 -6 801 C-6.33 800.34 -6.66 799.68 -7 799 C-9.33 798.65 -11.66 798.32 -14 798 C-16.62 796.91 -18.61 795.59 -21 794 C-22.99 793.61 -24.99 793.27 -27 793 C-27 792.01 -27 791.02 -27 790 C-29.31 790 -31.62 790 -34 790 C-34.33 789.01 -34.66 788.02 -35 787 C-37.02 786.27 -37.02 786.27 -39 786 C-39 785.34 -39 784.68 -39 784 C-39.99 784.33 -40.98 784.66 -42 785 C-42.99 784.34 -43.98 783.68 -45 783 C-45.66 783 -46.32 783 -47 783 C-47.66 782.34 -48.32 781.68 -49 781 C-49.82 780.88 -50.65 780.75 -51.5 780.62 C-52.32 780.42 -53.15 780.21 -54 780 C-54.31 779.34 -54.62 778.68 -54.94 778 C-55.46 777.01 -55.46 777.01 -56 776 C-59.06 775.18 -59.06 775.18 -62 775 C-62 774.34 -62 773.68 -62 773 C-62.66 773 -63.32 773 -64 773 C-64 772.34 -64 771.68 -64 771 C-65.98 770.67 -67.96 770.34 -70 770 C-70 769.01 -70 768.02 -70 767 C-71.05 766.77 -72.1 766.55 -73.19 766.31 C-77.19 765.2 -79.15 763 -82 760 C-83.32 759.63 -84.66 759.29 -86 759 C-86.33 758.01 -86.66 757.02 -87 756 C-87.91 755.92 -88.81 755.84 -89.75 755.75 C-93.47 754.89 -94.53 753.81 -97 751 C-97.99 750.34 -98.98 749.68 -100 749 C-100 748.34 -100 747.68 -100 747 C-100.99 746.67 -101.98 746.34 -103 746 C-103 745.34 -103 744.68 -103 744 C-109.93 746.27 -114.04 750.5 -119.09 755.64 C-119.98 756.53 -120.88 757.42 -121.8 758.34 C-124.27 760.81 -126.73 763.29 -129.18 765.78 C-131.84 768.46 -134.5 771.13 -137.17 773.8 C-141.78 778.42 -146.39 783.05 -150.99 787.69 C-157.65 794.4 -164.31 801.09 -170.99 807.78 C-181.81 818.63 -192.63 829.5 -203.45 840.37 C-204.09 841.02 -204.74 841.67 -205.41 842.34 C-210 846.95 -214.59 851.57 -219.19 856.19 C-224.44 861.47 -229.69 866.75 -234.94 872.03 C-235.59 872.68 -236.24 873.33 -236.9 874 C-247.68 884.83 -258.47 895.65 -269.26 906.47 C-275.92 913.15 -282.57 919.83 -289.21 926.52 C-293.76 931.1 -298.31 935.68 -302.87 940.24 C-305.5 942.88 -308.13 945.52 -310.75 948.17 C-313.59 951.04 -316.44 953.89 -319.29 956.74 C-320.54 958.01 -320.54 958.01 -321.81 959.31 C-322.57 960.07 -323.34 960.82 -324.12 961.6 C-324.78 962.26 -325.44 962.93 -326.11 963.61 C-328 965 -328 965 -332 965 C-332 966.32 -332 967.64 -332 969 C-334.25 971.5 -334.25 971.5 -337 974 C-337.66 974.72 -338.32 975.44 -339 976.19 C-341.24 978.22 -343.1 979.16 -346 980 C-346.66 979.67 -347.32 979.34 -348 979 C-347.5 980.49 -347.5 980.49 -347 982 C-347.81 982.29 -347.81 982.29 -348.64 982.59 C-349.72 982.98 -349.72 982.98 -350.81 983.38 C-351.87 983.76 -351.87 983.76 -352.96 984.15 C-355.25 985.03 -355.25 985.03 -358 987 C-361.09 987.23 -361.09 987.23 -364.86 987.2 C-365.52 987.19 -366.18 987.19 -366.86 987.19 C-368.97 987.18 -371.08 987.15 -373.19 987.12 C-374.62 987.11 -376.05 987.11 -377.48 987.1 C-380.99 987.08 -384.49 987.04 -388 987 C-388 986.34 -388 985.68 -388 985 C-388.84 984.85 -388.84 984.85 -389.69 984.69 C-392 984 -392 984 -394.38 982.56 C-396.97 980.88 -396.97 980.88 -400.06 980.06 C-404.51 978.45 -406.42 975.86 -409 972 C-409.66 971.69 -410.32 971.38 -411 971.06 C-413.49 969.74 -413.83 968.5 -415 966 C-415.99 965.34 -416.98 964.68 -418 964 C-418.37 962.01 -418.7 960.01 -419 958 C-419.66 957.67 -420.32 957.34 -421 957 C-422.63 953.65 -423 951.81 -423 948 C-423.66 948 -424.32 948 -425 948 C-425 937.33 -425 926.67 -425 916 C-424.34 916 -423.68 916 -423 916 C-422.89 915.45 -422.78 914.9 -422.67 914.33 C-420.46 906.63 -415.54 899.66 -410 894 C-409.34 894 -408.68 894 -408 894 C-408 893.34 -408 892.68 -408 892 C-406.62 890.38 -406.62 890.38 -405 889 C-404.34 889 -403.68 889 -403 889 C-403 888.34 -403 887.68 -403 887 C-401.62 885.38 -401.62 885.38 -400 884 C-399.34 884 -398.68 884 -398 884 C-398 883.34 -398 882.68 -398 882 C-396.62 880.38 -396.62 880.38 -395 879 C-394.34 879 -393.68 879 -393 879 C-393 878.34 -393 877.68 -393 877 C-391.62 875.38 -391.62 875.38 -390 874 C-389.34 874 -388.68 874 -388 874 C-388 873.34 -388 872.68 -388 872 C-386.62 870.38 -386.62 870.38 -385 869 C-384.34 869 -383.68 869 -383 869 C-383 868.34 -383 867.68 -383 867 C-381.62 865.38 -381.62 865.38 -380 864 C-379.34 864 -378.68 864 -378 864 C-378 863.34 -378 862.68 -378 862 C-376.62 860.38 -376.62 860.38 -375 859 C-374.34 859 -373.68 859 -373 859 C-373 858.34 -373 857.68 -373 857 C-371.62 855.38 -371.62 855.38 -370 854 C-369.34 854 -368.68 854 -368 854 C-368 853.34 -368 852.68 -368 852 C-366.62 850.38 -366.62 850.38 -365 849 C-364.34 849 -363.68 849 -363 849 C-363 848.34 -363 847.68 -363 847 C-361.62 845.38 -361.62 845.38 -360 844 C-359.34 844 -358.68 844 -358 844 C-358 843.34 -358 842.68 -358 842 C-356.62 840.38 -356.62 840.38 -355 839 C-354.34 839 -353.68 839 -353 839 C-353 838.34 -353 837.68 -353 837 C-351.62 835.38 -351.62 835.38 -350 834 C-349.34 834 -348.68 834 -348 834 C-348 833.34 -348 832.68 -348 832 C-346.62 830.38 -346.62 830.38 -345 829 C-344.34 829 -343.68 829 -343 829 C-343 828.34 -343 827.68 -343 827 C-341.62 825.38 -341.62 825.38 -340 824 C-339.34 824 -338.68 824 -338 824 C-338 823.34 -338 822.68 -338 822 C-336.62 820.38 -336.62 820.38 -335 819 C-334.34 819 -333.68 819 -333 819 C-333 818.34 -333 817.68 -333 817 C-331.62 815.38 -331.62 815.38 -330 814 C-329.34 814 -328.68 814 -328 814 C-328 813.34 -328 812.68 -328 812 C-326.62 810.38 -326.62 810.38 -325 809 C-324.34 809 -323.68 809 -323 809 C-323 808.34 -323 807.68 -323 807 C-321.62 805.38 -321.62 805.38 -320 804 C-319.34 804 -318.68 804 -318 804 C-318 803.34 -318 802.68 -318 802 C-316.62 800.38 -316.62 800.38 -315 799 C-314.34 799 -313.68 799 -313 799 C-313 798.34 -313 797.68 -313 797 C-311.62 795.38 -311.62 795.38 -310 794 C-309.34 794 -308.68 794 -308 794 C-308 793.34 -308 792.68 -308 792 C-306.62 790.38 -306.62 790.38 -305 789 C-304.34 789 -303.68 789 -303 789 C-303 788.34 -303 787.68 -303 787 C-301.62 785.38 -301.62 785.38 -300 784 C-299.34 784 -298.68 784 -298 784 C-298 783.34 -298 782.68 -298 782 C-296.63 780.38 -296.63 780.38 -295 779 C-294.34 779 -293.68 779 -293 779 C-293 778.34 -293 777.68 -293 777 C-291.63 775.38 -291.63 775.38 -290 774 C-289.34 774 -288.68 774 -288 774 C-288 773.34 -288 772.68 -288 772 C-286.63 770.38 -286.63 770.38 -285 769 C-284.34 769 -283.68 769 -283 769 C-283 768.34 -283 767.68 -283 767 C-281.63 765.38 -281.63 765.38 -280 764 C-279.34 764 -278.68 764 -278 764 C-278 763.34 -278 762.68 -278 762 C-276.63 760.38 -276.63 760.38 -275 759 C-274.34 759 -273.68 759 -273 759 C-273 758.34 -273 757.68 -273 757 C-271.63 755.38 -271.63 755.38 -270 754 C-269.34 754 -268.68 754 -268 754 C-268 753.34 -268 752.68 -268 752 C-266.63 750.38 -266.63 750.38 -265 749 C-264.34 749 -263.68 749 -263 749 C-263 748.34 -263 747.68 -263 747 C-261.63 745.38 -261.63 745.38 -260 744 C-259.34 744 -258.68 744 -258 744 C-258 743.34 -258 742.68 -258 742 C-256.63 740.38 -256.63 740.38 -255 739 C-254.34 739 -253.68 739 -253 739 C-253 738.34 -253 737.68 -253 737 C-251.63 735.38 -251.63 735.38 -250 734 C-249.34 734 -248.68 734 -248 734 C-248 733.34 -248 732.68 -248 732 C-246.63 730.38 -246.63 730.38 -245 729 C-244.34 729 -243.68 729 -243 729 C-243 728.34 -243 727.68 -243 727 C-241.63 725.38 -241.63 725.38 -240 724 C-239.34 724 -238.68 724 -238 724 C-238 723.34 -238 722.68 -238 722 C-236.63 720.38 -236.63 720.38 -235 719 C-234.34 719 -233.68 719 -233 719 C-233 718.34 -233 717.68 -233 717 C-231.63 715.38 -231.63 715.38 -230 714 C-229.34 714 -228.68 714 -228 714 C-228 713.34 -228 712.68 -228 712 C-226.63 710.38 -226.63 710.38 -225 709 C-224.34 709 -223.68 709 -223 709 C-223 708.34 -223 707.68 -223 707 C-221.63 705.38 -221.63 705.38 -220 704 C-219.34 704 -218.68 704 -218 704 C-218 703.34 -218 702.68 -218 702 C-216.63 700.38 -216.63 700.38 -215 699 C-214.34 699 -213.68 699 -213 699 C-213 698.34 -213 697.68 -213 697 C-211.63 695.38 -211.63 695.38 -210 694 C-209.34 694 -208.68 694 -208 694 C-208 693.34 -208 692.68 -208 692 C-206.63 690.38 -206.63 690.38 -205 689 C-204.34 689 -203.68 689 -203 689 C-203 688.34 -203 687.68 -203 687 C-201.63 685.38 -201.63 685.38 -200 684 C-199.34 684 -198.68 684 -198 684 C-198 683.34 -198 682.68 -198 682 C-196.63 680.38 -196.63 680.38 -195 679 C-194.34 679 -193.68 679 -193 679 C-193 678.34 -193 677.68 -193 677 C-191.63 675.38 -191.63 675.38 -190 674 C-189.34 674 -188.68 674 -188 674 C-188 673.34 -188 672.68 -188 672 C-186.63 670.38 -186.63 670.38 -185 669 C-184.34 669 -183.68 669 -183 669 C-183.35 667.02 -183.35 667.02 -184 665 C-184.66 664.67 -185.32 664.34 -186 664 C-186.1 663.42 -186.21 662.85 -186.31 662.25 C-187.31 658.97 -189.57 657.38 -192 655 C-193.34 653.01 -194.68 651.01 -196 649 C-196.66 648.67 -197.32 648.34 -198 648 C-198.63 645.44 -198.63 645.44 -199 643 C-199.66 643 -200.32 643 -201 643 C-201 642.01 -201 641.02 -201 640 C-201.66 640 -202.32 640 -203 640 C-203.29 639.04 -203.29 639.04 -203.59 638.07 C-203.85 637.24 -204.11 636.41 -204.38 635.56 C-204.63 634.74 -204.89 633.92 -205.15 633.07 C-205.81 630.82 -205.81 630.82 -208 630 C-208.62 627.94 -208.62 627.94 -209 626 C-209.66 626 -210.32 626 -211 626 C-214 620.25 -214 620.25 -214 618 C-214.66 618 -215.32 618 -216 618 C-216 616.68 -216 615.36 -216 614 C-216.66 613.67 -217.32 613.34 -218 613 C-218.62 610.44 -218.62 610.44 -219 608 C-219.66 608 -220.32 608 -221 608 C-221 606.68 -221 605.36 -221 604 C-221.66 603.67 -222.32 603.34 -223 603 C-223.62 600.44 -223.62 600.44 -224 598 C-224.66 598 -225.32 598 -226 598 C-226 596.68 -226 595.36 -226 594 C-226.66 593.67 -227.32 593.34 -228 593 C-228.33 591.33 -228.67 589.67 -229 588 C-229.66 587.67 -230.32 587.34 -231 587 C-231.85 585 -231.85 585 -232.62 582.56 C-232.89 581.76 -233.15 580.96 -233.41 580.13 C-234 578 -234 578 -234 576 C-234.66 576 -235.32 576 -236 576 C-236.19 575.22 -236.39 574.44 -236.59 573.63 C-236.85 572.62 -237.11 571.61 -237.38 570.56 C-237.63 569.55 -237.89 568.54 -238.15 567.5 C-238.73 564.84 -238.73 564.84 -241 564 C-241.52 562.33 -242.04 560.66 -242.48 558.97 C-243.3 555.89 -244.35 552.89 -245.38 549.88 C-247.7 542.95 -249.92 536 -252 529 C-252.38 527.74 -252.38 527.74 -252.77 526.45 C-254.8 519.44 -256.19 512.33 -257.55 505.17 C-258.24 501.6 -258.95 498.15 -260.02 494.68 C-261.44 489.33 -261.96 483.93 -262.56 478.44 C-262.81 476.23 -263.06 474.02 -263.32 471.81 C-263.42 470.84 -263.53 469.87 -263.64 468.86 C-264.01 465.89 -264.49 462.95 -265 460 C-265.87 454.11 -266.13 448.45 -266.06 442.5 C-266.06 441.68 -266.05 440.86 -266.05 440.01 C-266.04 438.01 -266.02 436 -266 434 C-266.66 433.67 -267.32 433.34 -268 433 C-267.34 433 -266.68 433 -266 433 C-266.07 432.01 -266.14 431.01 -266.22 429.99 C-266.31 428.62 -266.41 427.25 -266.5 425.88 C-266.57 424.91 -266.57 424.91 -266.64 423.92 C-267.45 411.87 -266.94 399.9 -266.06 387.88 C-265.93 385.95 -265.93 385.95 -265.8 383.98 C-265.11 374.15 -265.11 374.15 -264 370 C-263.7 366.41 -263.49 362.81 -263.28 359.21 C-263 356 -263 356 -262 353 C-261.45 349.39 -260.98 345.77 -260.5 342.15 C-260 339 -260 339 -259 337 C-258.77 335.05 -258.54 333.1 -258.31 331.16 C-257.73 327.11 -256.57 323.3 -254.94 319.56 C-253.89 316.69 -253.59 314.09 -253.34 311.06 C-253 309 -253 309 -252.06 306.66 C-250.42 302.56 -249.69 298.28 -248.78 293.96 C-248 291 -248 291 -246 288 C-245.37 286.08 -244.8 284.14 -244.25 282.19 C-242.06 274.85 -239.09 267.99 -236 261 C-235.06 258.79 -234.12 256.59 -233.19 254.38 C-232.59 252.96 -232.59 252.96 -231.98 251.52 C-231.14 249.35 -230.5 247.27 -230 245 C-229.34 245 -228.68 245 -228 245 C-227.88 244.28 -227.75 243.56 -227.62 242.81 C-227.01 240.04 -226.12 237.6 -225 235 C-224.34 235 -223.68 235 -223 235 C-222.88 234.28 -222.75 233.56 -222.62 232.81 C-222.01 230.04 -221.12 227.6 -220 225 C-219.34 225 -218.68 225 -218 225 C-217.83 223.91 -217.83 223.91 -217.67 222.79 C-216.96 219.84 -215.95 217.9 -214.34 215.34 C-213.8 214.47 -213.26 213.6 -212.7 212.71 C-212.14 211.81 -211.58 210.92 -211 210 C-209.94 208.26 -208.88 206.52 -207.82 204.78 C-206.73 203.02 -205.65 201.26 -204.56 199.5 C-204.03 198.63 -203.49 197.75 -202.94 196.86 C-199.6 191.44 -196.1 186.19 -192.4 181.01 C-190.97 179.06 -190.97 179.06 -190 177 C-189.34 177 -188.68 177 -188 177 C-187.66 175.67 -187.66 175.67 -187.31 174.31 C-185.8 170.51 -183.91 168.84 -181 166 C-180.04 164.3 -179.08 162.6 -178.15 160.88 C-175.91 157.21 -172.88 154.17 -170 151 C-169.58 150.5 -169.15 150 -168.71 149.48 C-162.91 142.67 -156.56 136.4 -150.24 130.07 C-149.01 128.84 -147.78 127.6 -146.54 126.36 C-143.97 123.79 -141.4 121.21 -138.82 118.64 C-135.53 115.34 -132.24 112.04 -128.95 108.74 C-126.41 106.19 -123.87 103.64 -121.32 101.1 C-120.11 99.88 -118.9 98.66 -117.69 97.44 C-115.99 95.74 -114.3 94.05 -112.6 92.35 C-112.1 91.85 -111.61 91.35 -111.1 90.84 C-108.27 88.04 -105.47 85.94 -102 84 C-100.11 82.35 -100.11 82.35 -98.41 80.53 C-97.77 79.88 -97.13 79.22 -96.47 78.55 C-95.82 77.87 -95.17 77.2 -94.5 76.5 C-86.44 68.13 -86.44 68.13 -82 66 C-81.34 66 -80.68 66 -80 66 C-80 65.34 -80 64.68 -80 64 C-78.43 62.45 -78.43 62.45 -76.31 60.69 C-73.86 58.61 -71.57 56.56 -69.31 54.25 C-67 52 -67 52 -64.62 50.62 C-62.14 49.09 -60.52 47.59 -58.5 45.5 C-55.87 42.79 -53.43 40.67 -50 39 C-49.34 39 -48.68 39 -48 39 C-48 38.34 -48 37.68 -48 37 C-46.36 35.38 -46.36 35.38 -44.19 33.56 C-41.23 31.08 -41.23 31.08 -38.45 28.4 C-36.48 26.5 -34.16 25.36 -31.78 24.05 C-29.75 22.91 -29.75 22.91 -27.19 20.75 C-25 19 -25 19 -23 19 C-23 18.34 -23 17.68 -23 17 C-21.26 15.55 -19.46 14.19 -17.62 12.88 C-16.63 12.15 -15.63 11.43 -14.6 10.68 C-12 9 -12 9 -10 9 C-10 8.34 -10 7.68 -10 7 C-7.43 3.67 -3.62 1.98 0 0 Z M666 400 C666.33 400.66 666.66 401.32 667 402 C667.66 401.34 668.32 400.68 669 400 C668.01 400 667.02 400 666 400 Z M105 825 C105 825.33 105 825.66 105 826 C108.96 826 112.92 826 117 826 C117 825.67 117 825.34 117 825 C113.04 825 109.08 825 105 825 Z M-337 969 C-336.67 969.66 -336.34 970.32 -336 971 C-335.67 970.34 -335.34 969.68 -335 969 C-335.66 969 -336.32 969 -337 969 Z M-402 977 C-402 977.66 -402 978.32 -402 979 C-401.34 978.67 -400.68 978.34 -400 978 C-400.66 977.67 -401.32 977.34 -402 977 Z " fill="#191A1B" transform="translate(425,293)"/>
<path d="M0 0 C0.66 0.33 1.32 0.66 2 1 C2.66 0.67 3.32 0.34 4 0 C5.8 -0.1 7.59 -0.14 9.39 -0.15 C10.52 -0.15 11.65 -0.16 12.81 -0.16 C14.04 -0.17 15.27 -0.17 16.53 -0.17 C17.79 -0.17 19.05 -0.17 20.35 -0.18 C23.03 -0.18 25.71 -0.19 28.38 -0.19 C31.79 -0.19 35.19 -0.2 38.6 -0.22 C41.87 -0.23 45.14 -0.23 48.41 -0.23 C50.22 -0.24 50.22 -0.24 52.08 -0.25 C58.98 -0.23 65.29 0.39 72 2 C73.85 2.32 75.71 2.63 77.56 2.94 C81.84 3.7 85.8 4.83 89.89 6.29 C91.91 6.97 93.91 7.47 96 7.94 C99.77 8.84 103.13 10.3 106.64 11.93 C109.11 13.05 111.6 14.07 114.12 15.06 C114.96 15.39 115.79 15.72 116.64 16.06 C118.11 16.65 119.58 17.23 121.05 17.81 C123.64 18.88 125.89 19.92 128.12 21.62 C130.38 23.28 132.26 23.62 135 24 C135 24.66 135 25.32 135 26 C137.64 27.41 140.07 28.37 143 29 C143 29.66 143 30.32 143 31 C143.7 31.27 144.4 31.54 145.12 31.81 C149.7 33.7 153.56 35.41 157 39 C158.65 40.03 160.32 41.03 162 42 C162.99 42.66 163.98 43.32 165 44 C165 44.66 165 45.32 165 46 C165.88 46.38 165.88 46.38 166.78 46.78 C169.19 48.1 170.69 49.56 172.56 51.56 C174.83 54 175.77 54.92 179 56 C179 56.66 179 57.32 179 58 C179.66 58 180.32 58 181 58 C182.62 59.37 182.62 59.37 184 61 C184 61.66 184 62.32 184 63 C184.66 63 185.32 63 186 63 C187.01 64.66 188.01 66.33 189 68 C190.47 69.61 192 71.17 193.56 72.69 C194.35 73.45 195.13 74.22 195.94 75.01 C196.96 76 196.96 76 198 77 C200 79 200 79 201.44 81.44 C202.84 83.97 202.84 83.97 204.62 85.56 C206 87 206 87 206.44 89 C207.21 91.74 208.64 92.52 211 94 C211.33 94 211.66 94 212 94 C212.27 94.93 212.54 95.86 212.81 96.81 C213.97 99.92 214.72 100.81 217 103 C218.06 105.38 218.06 105.38 219 108 C220.13 111.08 221.45 113.82 223.12 116.62 C225 120 225 120 225 123 C225.66 123 226.32 123 227 123 C227.31 123.95 227.62 124.9 227.94 125.88 C229.03 129.76 229.03 129.76 232 132 C232.38 133.66 232.7 135.33 233 137 C233.35 137.99 233.7 138.98 234.06 140 C234.96 142.88 235.18 145.02 235 148 C235.66 148 236.32 148 237 148 C237.06 148.6 237.12 149.21 237.18 149.83 C237.27 150.63 237.35 151.43 237.44 152.25 C237.52 153.04 237.6 153.83 237.68 154.64 C237.98 156.83 238.45 158.87 239 161 C239.35 163.33 239.69 165.66 240 168 C240.66 168 241.32 168 242 168 C242.06 168.76 242.12 169.52 242.18 170.3 C242.27 171.29 242.35 172.29 242.44 173.31 C242.52 174.3 242.6 175.28 242.68 176.3 C242.92 179.09 242.92 179.09 244 182 C244.66 182.33 245.32 182.66 246 183 C246.07 190.62 246.12 198.25 246.16 205.87 C246.17 209.41 246.19 212.95 246.23 216.49 C246.27 220.56 246.28 224.63 246.29 228.7 C246.31 229.97 246.32 231.24 246.34 232.55 C246.34 233.73 246.34 234.91 246.34 236.13 C246.35 237.17 246.35 238.21 246.36 239.28 C245.95 242.39 244.98 243.63 243 246 C242.75 248.42 242.75 248.42 243 250.94 C243.15 255.35 242.45 257.28 240 261 C239.31 264.94 238.97 268.33 239.12 272.31 C239 275 239 275 237.56 276.38 C235.61 278.41 235.37 279.88 234.88 282.62 C234.08 286.92 234.08 286.92 233 288 C232.82 289.39 232.68 290.79 232.56 292.19 C232.07 297.04 231.56 301.44 228 305 C227.65 308.09 227.56 311.15 227.44 314.25 C227.3 315.16 227.15 316.06 227 317 C226.01 317.66 225.02 318.32 224 319 C223.75 321.15 223.75 321.15 224 323.5 C224.19 325.91 224.19 325.91 224 328 C223.01 328.66 222.02 329.32 221 330 C219.84 332.98 219.84 332.98 219 336 C218.67 336.66 218.34 337.32 218 338 C217.85 339.43 217.73 340.87 217.62 342.31 C217.23 346.32 216.09 348.55 214 352 C214 353.18 214 354.35 214 355.56 C214 359.47 213.41 360.12 211 363 C209.77 366.04 208.98 368.34 209.06 371.62 C208.98 374.68 207.87 375.63 206 378 C204.77 381.04 203.98 383.34 204.06 386.62 C203.98 389.68 202.87 390.63 201 393 C199.3 397.29 198.44 401.62 197.66 406.14 C197.44 406.76 197.22 407.37 197 408 C196.01 408.33 195.02 408.66 194 409 C194 411.64 194 414.28 194 417 C193.34 417 192.68 417 192 417 C190.93 420.13 189.93 423.25 189.06 426.44 C188.28 429.05 187.47 431.34 186.38 433.81 C184.87 436.73 184.87 436.73 185 439 C184.34 439 183.68 439 183 439 C182.67 441.97 182.34 444.94 182 448 C181.01 448.33 180.02 448.66 179 449 C178.9 450.05 178.79 451.1 178.69 452.19 C178.02 455.92 177 457.87 175 461 C175 461.99 175 462.98 175 464 C174.34 464 173.68 464 173 464 C172.67 466.97 172.34 469.94 172 473 C171.01 473.33 170.02 473.66 169 474 C168.9 475.05 168.79 476.1 168.69 477.19 C168.02 480.92 167 482.87 165 486 C165 486.99 165 487.98 165 489 C164.34 489 163.68 489 163 489 C163.33 490.32 163.66 491.64 164 493 C163.07 493.09 163.07 493.09 162.12 493.19 C159.72 493.83 159.72 493.83 158.75 496.56 C158.5 497.37 158.26 498.17 158 499 C158.66 499.33 159.32 499.66 160 500 C159.67 501.65 159.34 503.3 159 505 C158.01 505 157.02 505 156 505 C155.67 506.32 155.34 507.64 155 509 C154.34 509 153.68 509 153 509 C153.33 509.99 153.66 510.98 154 512 C152.63 514 152.63 514 151 516 C150.67 516.99 150.34 517.98 150 519 C149.34 519 148.68 519 148 519 C148.33 519.99 148.66 520.98 149 522 C148.4 524.35 147.74 526.69 147 529 C146.34 529 145.68 529 145 529 C144.67 531.97 144.34 534.94 144 538 C142.68 538.33 141.36 538.66 140 539 C139.86 540.09 139.71 541.19 139.56 542.31 C139 546 139 546 138 549 C137.01 549 136.02 549 135 549 C134.34 550.65 133.68 552.3 133 554 C133.66 554.33 134.32 554.66 135 555 C134.67 556.65 134.34 558.3 134 560 C133.01 560 132.02 560 131 560 C130.67 561.32 130.34 562.64 130 564 C129.34 564 128.68 564 128 564 C128.33 564.99 128.66 565.98 129 567 C127.63 569 127.63 569 126 571 C125.67 571.99 125.34 572.98 125 574 C124.34 574 123.68 574 123 574 C123.33 574.99 123.66 575.98 124 577 C122.62 579 122.62 579 121 581 C120.67 581.99 120.34 582.98 120 584 C119.34 584 118.68 584 118 584 C118.33 585.32 118.66 586.64 119 588 C-7.39 588 -133.78 588 -264 588 C-264 584.24 -263.04 582.22 -260.62 579.37 C-260.08 578.84 -259.55 578.31 -259 577.76 C-258.07 576.83 -258.07 576.83 -257.12 575.87 C-256.44 575.2 -255.76 574.53 -255.06 573.83 C-254.34 573.11 -253.62 572.39 -252.87 571.64 C-250.44 569.22 -248.01 566.8 -245.57 564.38 C-243.83 562.64 -242.09 560.91 -240.35 559.17 C-236.61 555.43 -232.85 551.69 -229.1 547.95 C-223.67 542.54 -218.24 537.13 -212.82 531.71 C-204.01 522.92 -195.2 514.14 -186.39 505.35 C-185.6 504.56 -185.6 504.56 -184.79 503.76 C-180.51 499.49 -176.24 495.23 -171.96 490.96 C-168.22 487.23 -164.48 483.51 -160.74 479.78 C-160.21 479.26 -159.69 478.73 -159.14 478.19 C-150.37 469.44 -141.59 460.68 -132.82 451.93 C-127.41 446.53 -122 441.13 -116.58 435.73 C-112.43 431.6 -108.28 427.46 -104.14 423.33 C-102.43 421.63 -100.73 419.93 -99.03 418.24 C-96.7 415.93 -94.38 413.61 -92.07 411.29 C-91.05 410.29 -91.05 410.29 -90.01 409.26 C-86.8 406.03 -84.15 403.06 -82 399 C-81.32 397.93 -80.64 396.86 -79.94 395.75 C-77.63 391.64 -76.7 387.64 -76 383 C-75.85 382.08 -75.71 381.15 -75.55 380.2 C-74.36 370.2 -76.17 360.81 -78 351 C-78.66 351 -79.32 351 -80 351 C-80 349.68 -80 348.36 -80 347 C-80.66 346.67 -81.32 346.34 -82 346 C-85 342.42 -85 342.42 -85 340 C-85.66 339.67 -86.32 339.34 -87 339 C-87.47 338.18 -87.95 337.35 -88.44 336.5 C-89.81 333.71 -89.81 333.71 -93 333 C-93.45 332.15 -93.91 331.31 -94.38 330.44 C-94.91 329.63 -95.45 328.83 -96 328 C-98.46 327.83 -98.46 327.83 -101 328 C-103.44 326.51 -104.72 325.56 -106 323 C-108.31 323 -110.62 323 -113 323 C-113 322.67 -113 322.34 -113 322 C-116.58 321.77 -120.17 321.57 -123.75 321.38 C-124.77 321.31 -125.78 321.25 -126.83 321.18 C-127.81 321.13 -128.79 321.08 -129.8 321.02 C-130.7 320.97 -131.6 320.92 -132.53 320.86 C-135.21 321.01 -136.68 321.7 -139 323 C-141.04 323.12 -141.04 323.12 -143.06 323 C-147.05 322.64 -147.05 322.64 -150 325 C-150.66 324.67 -151.32 324.34 -152 324 C-152.33 324.99 -152.66 325.98 -153 327 C-154.74 328.2 -154.74 328.2 -156.88 329.25 C-157.57 329.61 -158.27 329.96 -158.99 330.33 C-161 331 -161 331 -164 330 C-163.73 330.54 -163.46 331.09 -163.18 331.65 C-163 334 -163 334 -165 336.62 C-166 337.65 -167.02 338.66 -168.05 339.66 C-168.61 340.23 -169.16 340.79 -169.74 341.37 C-171.63 343.28 -173.54 345.16 -175.45 347.05 C-176.82 348.42 -178.18 349.79 -179.55 351.16 C-183.31 354.94 -187.09 358.7 -190.88 362.46 C-194.95 366.51 -199.01 370.58 -203.07 374.64 C-210.12 381.69 -217.17 388.72 -224.23 395.76 C-234.44 405.93 -244.64 416.11 -254.83 426.3 C-271.38 442.83 -287.93 459.36 -304.5 475.87 C-320.58 491.91 -336.65 507.95 -352.72 524 C-353.22 524.49 -353.71 524.98 -354.22 525.49 C-359.19 530.46 -364.16 535.42 -369.13 540.38 C-379.26 550.5 -389.4 560.63 -399.54 570.75 C-400.47 571.68 -401.4 572.61 -402.36 573.57 C-430.12 601.28 -457.89 628.98 -485.66 656.68 C-486.26 657.28 -486.86 657.88 -487.48 658.5 C-488.58 659.59 -489.67 660.69 -490.77 661.78 C-493.85 664.85 -496.93 667.93 -500 671 C-502.36 667.31 -502.29 663.75 -502.27 659.51 C-502.28 658.75 -502.28 657.99 -502.29 657.21 C-502.3 654.64 -502.3 652.08 -502.3 649.51 C-502.31 647.66 -502.32 645.81 -502.33 643.96 C-502.35 638.86 -502.36 633.76 -502.36 628.66 C-502.37 623.17 -502.4 617.68 -502.41 612.18 C-502.46 598.91 -502.48 585.64 -502.51 572.36 C-502.51 567.37 -502.52 562.37 -502.53 557.38 C-502.58 535.37 -502.61 513.36 -502.63 491.36 C-502.64 485.97 -502.64 480.58 -502.65 475.19 C-502.65 474.53 -502.65 473.86 -502.65 473.17 C-502.67 451.46 -502.72 429.75 -502.8 408.04 C-502.87 385.09 -502.92 362.15 -502.93 339.2 C-502.93 326.69 -502.95 314.18 -503.01 301.67 C-503.06 291.01 -503.08 280.36 -503.06 269.71 C-503.05 264.28 -503.06 258.84 -503.1 253.4 C-503.14 248.43 -503.14 243.46 -503.1 238.48 C-503.1 236.68 -503.11 234.88 -503.14 233.07 C-503.32 219.6 -503.32 219.6 -499.99 215.58 C-497.09 213.57 -494.59 212 -491 212 C-491 211.34 -491 210.68 -491 210 C-489.35 209.67 -487.7 209.34 -486 209 C-486 208.34 -486 207.68 -486 207 C-485.35 206.66 -484.69 206.32 -484.02 205.97 C-477.74 202.64 -471.87 198.96 -466.01 194.96 C-462.16 192.45 -458.17 190.32 -454.08 188.23 C-451.86 187.17 -451.86 187.17 -451 185 C-449.38 184.31 -447.76 183.63 -446.13 182.96 C-443.79 181.91 -441.68 180.66 -439.5 179.31 C-435.1 176.61 -430.62 174.12 -426.06 171.69 C-425.41 171.34 -424.76 170.99 -424.09 170.63 C-421.42 169.21 -418.88 167.96 -416 167 C-416 166.34 -416 165.68 -416 165 C-415 164.59 -414 164.17 -412.97 163.75 C-409.02 162.05 -405.23 160.1 -401.44 158.06 C-400.8 157.73 -400.17 157.39 -399.52 157.05 C-396.59 155.49 -393.84 153.89 -391.09 152.01 C-387.24 149.51 -383.23 147.66 -379.06 145.75 C-371.67 142.31 -364.46 138.66 -357.3 134.78 C-352.91 132.41 -348.47 130.2 -344 128 C-342.46 127.23 -340.92 126.46 -339.38 125.69 C-338.55 125.27 -337.72 124.86 -336.86 124.43 C-334.73 123.37 -332.61 122.3 -330.48 121.22 C-322.23 117.07 -313.94 113.04 -305.56 109.15 C-302.03 107.49 -298.58 105.8 -295.22 103.83 C-292.58 102.33 -290.39 101.32 -287.5 100.5 C-283.97 99.4 -281.07 97.93 -277.91 95.98 C-274.17 94.05 -270.05 93.08 -266 92 C-266 91.34 -266 90.68 -266 90 C-263.36 89.67 -260.72 89.34 -258 89 C-258 88.34 -258 87.68 -258 87 C-257.42 86.77 -256.83 86.54 -256.23 86.3 C-251.43 84.39 -246.64 82.44 -241.88 80.44 C-238.48 79.01 -235.08 77.64 -231.62 76.38 C-228.06 75.1 -228.06 75.1 -225.06 73.5 C-221.9 71.95 -218.78 70.89 -215.43 69.82 C-210.13 68.04 -204.92 65.98 -199.94 63.44 C-197.57 62.28 -195.43 61.44 -192.93 60.64 C-187.08 58.72 -181.33 56.54 -175.58 54.34 C-174.37 53.89 -174.37 53.89 -173.13 53.43 C-172.41 53.15 -171.69 52.88 -170.94 52.59 C-169 52 -169 52 -166 52 C-166 51.34 -166 50.68 -166 50 C-160.9 48.09 -156.54 46.57 -151 47 C-151 46.34 -151 45.68 -151 45 C-150.11 44.76 -149.21 44.52 -148.29 44.27 C-141.8 42.47 -135.51 40.53 -129.29 37.94 C-123.84 35.71 -118.26 34.05 -112.56 32.56 C-108.98 31.61 -105.61 30.5 -102.19 29.06 C-97 26.89 -91.68 25.43 -86.26 23.94 C-83.66 23.19 -81.2 22.37 -78.69 21.38 C-75.18 20.07 -71.86 19.28 -68.22 18.53 C-65.38 17.85 -62.76 16.8 -60.06 15.73 C-57.03 14.66 -53.93 14.05 -50.79 13.43 C-48.99 13.16 -48.99 13.16 -48 12 C-45.67 11.96 -43.33 11.96 -41 12 C-41 11.34 -41 10.68 -41 10 C-37.7 9.67 -34.4 9.34 -31 9 C-31 8.34 -31 7.68 -31 7 C-29.8 6.88 -28.61 6.75 -27.38 6.62 C-23.71 6.17 -20.48 5.26 -17 4 C-11.18 1.99 -6.08 1.78 0 2 C0 1.34 0 0.68 0 0 Z M230 133 C231 135 231 135 231 135 Z M232 138 C233 140 233 140 233 140 Z M237 270 C237 271.65 237 273.3 237 275 C237.33 275 237.66 275 238 275 C238 273.35 238 271.7 238 270 C237.67 270 237.34 270 237 270 Z M-131 318 C-131 318.33 -131 318.66 -131 319 C-127.7 319 -124.4 319 -121 319 C-121 318.67 -121 318.34 -121 318 C-124.3 318 -127.6 318 -131 318 Z M222 323 C223 326 223 326 223 326 Z M192 413 C193 416 193 416 193 416 Z " fill="#191A1B" transform="translate(1034,0)"/>
<path d="M0 0 C0 6.97 -8.35 13.48 -13 18.19 C-15.78 20.95 -18.64 23.56 -21.61 26.11 C-26.22 30.14 -30.54 34.41 -34.86 38.74 C-35.71 39.59 -36.57 40.45 -37.45 41.33 C-39.81 43.68 -42.16 46.04 -44.51 48.4 C-47.06 50.95 -49.61 53.49 -52.15 56.04 C-56.56 60.44 -60.96 64.85 -65.37 69.26 C-71.73 75.63 -78.1 82.01 -84.47 88.38 C-94.81 98.71 -105.14 109.05 -115.47 119.4 C-125.5 129.44 -135.54 139.48 -145.57 149.52 C-146.19 150.14 -146.81 150.76 -147.45 151.39 C-150.56 154.5 -153.66 157.61 -156.77 160.72 C-182.52 186.48 -208.26 212.24 -234 238 C-234.66 237.34 -235.32 236.68 -236 236 C-234.38 233.96 -232.71 231.96 -231 230 C-230.34 230 -229.68 230 -229 230 C-229 229.34 -229 228.68 -229 228 C-227.62 226.38 -227.62 226.38 -226 225 C-225.34 225 -224.68 225 -224 225 C-224 224.34 -224 223.68 -224 223 C-222.62 221.38 -222.62 221.38 -221 220 C-220.34 220 -219.68 220 -219 220 C-219 219.34 -219 218.68 -219 218 C-217.62 216.38 -217.62 216.38 -216 215 C-215.34 215 -214.68 215 -214 215 C-214 214.34 -214 213.68 -214 213 C-212.62 211.38 -212.62 211.38 -211 210 C-210.34 210 -209.68 210 -209 210 C-209 209.34 -209 208.68 -209 208 C-207.62 206.38 -207.62 206.38 -206 205 C-205.34 205 -204.68 205 -204 205 C-204 204.34 -204 203.68 -204 203 C-202.62 201.38 -202.62 201.38 -201 200 C-200.34 200 -199.68 200 -199 200 C-199 199.34 -199 198.68 -199 198 C-197.62 196.38 -197.62 196.38 -196 195 C-195.34 195 -194.68 195 -194 195 C-194 194.34 -194 193.68 -194 193 C-192.62 191.38 -192.62 191.38 -191 190 C-190.34 190 -189.68 190 -189 190 C-189 189.34 -189 188.68 -189 188 C-187.62 186.38 -187.62 186.38 -186 185 C-185.34 185 -184.68 185 -184 185 C-184 184.34 -184 183.68 -184 183 C-182.62 181.38 -182.62 181.38 -181 180 C-180.34 180 -179.68 180 -179 180 C-179 179.34 -179 178.68 -179 178 C-177.62 176.38 -177.62 176.38 -176 175 C-175.34 175 -174.68 175 -174 175 C-174 174.34 -174 173.68 -174 173 C-172.62 171.38 -172.62 171.38 -171 170 C-170.34 170 -169.68 170 -169 170 C-169 169.34 -169 168.68 -169 168 C-167.62 166.38 -167.62 166.38 -166 165 C-165.34 165 -164.68 165 -164 165 C-164 164.34 -164 163.68 -164 163 C-162.62 161.38 -162.62 161.38 -161 160 C-160.34 160 -159.68 160 -159 160 C-159 159.34 -159 158.68 -159 158 C-157.62 156.38 -157.62 156.38 -156 155 C-155.34 155 -154.68 155 -154 155 C-154 154.34 -154 153.68 -154 153 C-152.62 151.38 -152.62 151.38 -151 150 C-150.34 150 -149.68 150 -149 150 C-149 149.34 -149 148.68 -149 148 C-147.62 146.38 -147.62 146.38 -146 145 C-145.34 145 -144.68 145 -144 145 C-144 144.34 -144 143.68 -144 143 C-142.62 141.38 -142.62 141.38 -141 140 C-140.34 140 -139.68 140 -139 140 C-139 139.34 -139 138.68 -139 138 C-137.62 136.38 -137.62 136.38 -136 135 C-135.34 135 -134.68 135 -134 135 C-134 134.34 -134 133.68 -134 133 C-132.62 131.38 -132.62 131.38 -131 130 C-130.34 130 -129.68 130 -129 130 C-129 129.34 -129 128.68 -129 128 C-127.62 126.38 -127.62 126.38 -126 125 C-125.34 125 -124.68 125 -124 125 C-124 124.34 -124 123.68 -124 123 C-122.62 121.38 -122.62 121.38 -121 120 C-120.34 120 -119.68 120 -119 120 C-119 119.34 -119 118.68 -119 118 C-117.62 116.38 -117.62 116.38 -116 115 C-115.34 115 -114.68 115 -114 115 C-114 114.34 -114 113.68 -114 113 C-112.62 111.38 -112.62 111.38 -111 110 C-110.34 110 -109.68 110 -109 110 C-109 109.34 -109 108.68 -109 108 C-107.63 106.38 -107.63 106.38 -106 105 C-105.34 105 -104.68 105 -104 105 C-104 104.34 -104 103.68 -104 103 C-102.63 101.38 -102.63 101.38 -101 100 C-100.34 100 -99.68 100 -99 100 C-99 99.34 -99 98.68 -99 98 C-97.63 96.38 -97.63 96.38 -96 95 C-95.34 95 -94.68 95 -94 95 C-94 94.34 -94 93.68 -94 93 C-92.63 91.38 -92.63 91.38 -91 90 C-90.34 90 -89.68 90 -89 90 C-89 89.34 -89 88.68 -89 88 C-87.63 86.38 -87.63 86.38 -86 85 C-85.34 85 -84.68 85 -84 85 C-84 84.34 -84 83.68 -84 83 C-82.63 81.38 -82.63 81.38 -81 80 C-80.34 80 -79.68 80 -79 80 C-79 79.34 -79 78.68 -79 78 C-77.63 76.38 -77.63 76.38 -76 75 C-75.34 75 -74.68 75 -74 75 C-74 74.34 -74 73.68 -74 73 C-72.63 71.38 -72.63 71.38 -71 70 C-70.34 70 -69.68 70 -69 70 C-69 69.34 -69 68.68 -69 68 C-67.63 66.38 -67.63 66.38 -66 65 C-65.34 65 -64.68 65 -64 65 C-64 64.34 -64 63.68 -64 63 C-62.63 61.38 -62.63 61.38 -61 60 C-60.34 60 -59.68 60 -59 60 C-59 59.34 -59 58.68 -59 58 C-57.63 56.38 -57.63 56.38 -56 55 C-55.34 55 -54.68 55 -54 55 C-54 54.34 -54 53.68 -54 53 C-52.63 51.38 -52.63 51.38 -51 50 C-50.34 50 -49.68 50 -49 50 C-49 49.34 -49 48.68 -49 48 C-47.63 46.38 -47.63 46.38 -46 45 C-45.34 45 -44.68 45 -44 45 C-44 44.34 -44 43.68 -44 43 C-42.63 41.38 -42.63 41.38 -41 40 C-40.34 40 -39.68 40 -39 40 C-39 39.34 -39 38.68 -39 38 C-37.63 36.38 -37.63 36.38 -36 35 C-35.34 35 -34.68 35 -34 35 C-34 34.34 -34 33.68 -34 33 C-32.63 31.38 -32.63 31.38 -31 30 C-30.34 30 -29.68 30 -29 30 C-29 29.34 -29 28.68 -29 28 C-27.63 26.38 -27.63 26.38 -26 25 C-25.34 25 -24.68 25 -24 25 C-24 24.34 -24 23.68 -24 23 C-22.63 21.38 -22.63 21.38 -21 20 C-20.34 20 -19.68 20 -19 20 C-19 19.34 -19 18.68 -19 18 C-17.63 16.38 -17.63 16.38 -16 15 C-15.34 15 -14.68 15 -14 15 C-14 14.34 -14 13.68 -14 13 C-12.63 11.38 -12.63 11.38 -11 10 C-10.34 10 -9.68 10 -9 10 C-9 9.34 -9 8.68 -9 8 C-7.69 6.38 -7.69 6.38 -6 5 C-5.01 5 -4.02 5 -3 5 C-2.69 4.36 -2.38 3.72 -2.06 3.06 C-1 1 -1 1 0 0 Z M-238 238 C-237.34 238.66 -236.68 239.32 -236 240 C-236.99 240.49 -236.99 240.49 -238 241 C-238 240.01 -238 239.02 -238 238 Z " fill="#202122" transform="translate(246,957)"/>
<path d="M0 0 C-42.57 42.57 -85.14 85.14 -129 129 C-129.66 128.67 -130.32 128.34 -131 128 C-131 123.78 -129.24 122.86 -126.28 119.9 C-125.77 119.39 -125.27 118.88 -124.74 118.35 C-123.03 116.63 -121.31 114.91 -119.59 113.2 C-118.36 111.97 -117.14 110.74 -115.91 109.51 C-112.58 106.16 -109.24 102.82 -105.89 99.49 C-102.4 96 -98.91 92.5 -95.42 89.01 C-89.56 83.14 -83.69 77.28 -77.81 71.42 C-71.02 64.65 -64.24 57.86 -57.46 51.06 C-51.65 45.24 -45.83 39.42 -40.01 33.6 C-36.52 30.13 -33.05 26.65 -29.57 23.16 C-26.31 19.89 -23.03 16.62 -19.75 13.36 C-18.55 12.16 -17.35 10.96 -16.15 9.75 C-14.51 8.11 -12.87 6.48 -11.23 4.85 C-10.31 3.93 -9.39 3.01 -8.44 2.07 C-5.49 -0.43 -3.61 -1.8 0 0 Z " fill="#18191A" transform="translate(932,427)"/>
<path d="M0 0 C0.99 0.33 1.98 0.66 3 1 C-61.35 65.35 -125.7 129.7 -192 196 C-192.66 195.34 -193.32 194.68 -194 194 C-129.98 129.98 -65.96 65.96 0 0 Z " fill="#252627" transform="translate(514,839)"/>
<path d="M0 0 C-3.09 3.14 -6.19 6.27 -9.29 9.4 C-10.34 10.46 -11.4 11.53 -12.45 12.6 C-13.96 14.13 -15.47 15.66 -16.99 17.19 C-17.9 18.11 -18.81 19.03 -19.75 19.98 C-22 22 -22 22 -24 22 C-24.26 22.59 -24.52 23.17 -24.79 23.77 C-26.08 26.15 -27.47 27.72 -29.39 29.63 C-30.44 30.69 -30.44 30.69 -31.52 31.76 C-32.67 32.91 -32.67 32.91 -33.85 34.07 C-34.66 34.88 -35.47 35.69 -36.3 36.53 C-38.98 39.21 -41.67 41.88 -44.35 44.55 C-46.21 46.4 -48.07 48.26 -49.93 50.11 C-54.32 54.5 -58.71 58.88 -63.11 63.25 C-68.12 68.24 -73.12 73.23 -78.12 78.22 C-88.41 88.49 -98.7 98.75 -109 109 C-109.66 108.67 -110.32 108.34 -111 108 C-111 104.03 -109.81 103.43 -107.04 100.66 C-106.16 99.77 -105.29 98.89 -104.38 97.97 C-103.4 96.99 -102.41 96.02 -101.42 95.04 C-100.4 94 -99.37 92.97 -98.34 91.94 C-95.54 89.13 -92.74 86.33 -89.93 83.53 C-86.99 80.6 -84.07 77.66 -81.14 74.73 C-76.22 69.8 -71.29 64.88 -66.36 59.97 C-60.66 54.28 -54.96 48.58 -49.28 42.88 C-44.4 37.99 -39.51 33.1 -34.62 28.22 C-31.7 25.3 -28.78 22.38 -25.87 19.46 C-23.13 16.71 -20.38 13.97 -17.62 11.23 C-16.61 10.22 -15.61 9.21 -14.6 8.2 C-13.23 6.82 -11.85 5.45 -10.47 4.09 C-9.7 3.32 -8.93 2.55 -8.13 1.75 C-5.31 -0.56 -3.38 -1.69 0 0 Z " fill="#18191A" transform="translate(642,717)"/>
<path d="M0 0 C0.66 0.66 1.32 1.32 2 2 C-13.18 17.18 -28.36 32.36 -44 48 C-44.66 47.34 -45.32 46.68 -46 46 C-30.82 30.82 -15.64 15.64 0 0 Z " fill="#242627" transform="translate(306,392)"/>
<path d="M0 0 C0 3 0 3 -1.99 5.31 C-2.9 6.2 -3.81 7.09 -4.74 8 C-5.23 8.48 -5.71 8.95 -6.21 9.45 C-7.76 10.97 -9.32 12.49 -10.88 14 C-12.43 15.52 -13.97 17.03 -15.52 18.55 C-16.93 19.94 -18.34 21.31 -19.75 22.69 C-22.12 24.98 -22.12 24.98 -24 28 C-24.99 28.33 -25.98 28.66 -27 29 C-27 22.59 -22.53 19.25 -18.27 14.94 C-17.39 14.08 -16.52 13.21 -15.62 12.31 C-14.76 11.43 -13.9 10.55 -13.01 9.65 C-12.17 8.81 -11.34 7.97 -10.48 7.11 C-9.71 6.35 -8.95 5.58 -8.17 4.79 C-5.97 2.97 -4.73 2.54 -2 2 C-1.34 1.34 -0.68 0.68 0 0 Z " fill="#171819" transform="translate(797,559)"/>
<path d="M0 0 C-7.26 7.26 -14.52 14.52 -22 22 C-22.66 21.67 -23.32 21.34 -24 21 C-23.5 20.57 -23.01 20.13 -22.5 19.69 C-20.67 18 -20.67 18 -21 15 C-19.69 13.3 -19.69 13.3 -17.86 11.46 C-17.2 10.8 -16.54 10.14 -15.86 9.45 C-15.17 8.77 -14.47 8.08 -13.75 7.38 C-13.07 6.68 -12.39 5.99 -11.68 5.27 C-11.02 4.61 -10.36 3.95 -9.67 3.27 C-9.06 2.67 -8.46 2.07 -7.83 1.44 C-5.13 -0.68 -3.15 -1.58 0 0 Z " fill="#18191A" transform="translate(642,717)"/>
<path d="M0 0 C0 3 0 3 -1.21 4.58 C-1.78 5.14 -2.35 5.7 -2.94 6.28 C-3.9 7.24 -3.9 7.24 -4.88 8.22 C-5.58 8.9 -6.28 9.59 -7 10.29 C-7.71 11 -8.42 11.71 -9.15 12.43 C-11.43 14.69 -13.71 16.94 -16 19.19 C-17.54 20.71 -19.08 22.24 -20.62 23.77 C-24.41 27.52 -28.2 31.26 -32 35 C-32.66 34.67 -33.32 34.34 -34 34 C-33.3 33.32 -32.61 32.64 -31.89 31.94 C-29.31 29.41 -26.74 26.88 -24.17 24.34 C-23.06 23.24 -21.94 22.15 -20.83 21.05 C-19.22 19.48 -17.63 17.91 -16.03 16.32 C-15.28 15.59 -15.28 15.59 -14.51 14.85 C-13.28 13.62 -12.13 12.31 -11 11 C-11 10.01 -11 9.02 -11 8 C-8.2 4.74 -6.26 2.73 -2 2 C-1.34 1.34 -0.68 0.68 0 0 Z " fill="#0F1112" transform="translate(527,829)"/>
<path d="M0 0 C0.66 0.33 1.32 0.66 2 1 C-2.62 5.62 -7.24 10.24 -12 15 C-12.99 14.67 -13.98 14.34 -15 14 C-10.5 8.46 -5.97 3.98 0 0 Z " fill="#212324" transform="translate(339,363)"/>
<path d="M0 0 C0 3 0 3 -1.79 5.16 C-2.61 5.98 -3.43 6.79 -4.27 7.63 C-5.16 8.52 -6.05 9.41 -6.96 10.32 C-8.37 11.71 -8.37 11.71 -9.81 13.12 C-10.74 14.06 -11.67 14.99 -12.63 15.95 C-19.6 22.87 -19.6 22.87 -23 24 C-23 22.68 -23 21.36 -23 20 C-22.15 19.88 -22.15 19.88 -21.28 19.77 C-18.21 18.74 -16.72 17.05 -14.45 14.75 C-13.61 13.89 -12.76 13.04 -11.89 12.16 C-10.59 10.81 -10.59 10.81 -9.25 9.44 C-8.36 8.54 -7.47 7.63 -6.56 6.71 C-4.37 4.48 -2.18 2.24 0 0 Z " fill="#0B0C0D" transform="translate(342,1014)"/>
<path d="M0 0 C-3.96 3.96 -7.92 7.92 -12 12 C-12.66 11.67 -13.32 11.34 -14 11 C-13.5 10.57 -13.01 10.13 -12.5 9.69 C-10.67 8 -10.67 8 -11 5 C-8.78 2.41 -7.01 0.4 -3.81 -0.88 C-2 -1 -2 -1 0 0 Z " fill="#131415" transform="translate(632,727)"/>
<path d="M0 0 C-2.97 2.97 -5.94 5.94 -9 9 C-9.66 8.67 -10.32 8.34 -11 8 C-11 5 -11 5 -8.75 2.38 C-3.8 -1.9 -3.8 -1.9 0 0 Z " fill="#141516" transform="translate(542,817)"/>
<path d="M0 0 C0.99 0.33 1.98 0.66 3 1 C-1.29 5.29 -5.58 9.58 -10 14 C-10.66 13.34 -11.32 12.68 -12 12 C-8.04 8.04 -4.08 4.08 0 0 Z " fill="#242627" transform="translate(619,734)"/>
<path d="M0 0 C-2.97 2.97 -5.94 5.94 -9 9 C-9.66 8.67 -10.32 8.34 -11 8 C-11 5 -11 5 -8.75 2.38 C-3.8 -1.9 -3.8 -1.9 0 0 Z " fill="#141516" transform="translate(812,547)"/>
<path d="M0 0 C7.92 0 15.84 0 24 0 C24 0.33 24 0.66 24 1 C15.64 2.1 7.41 2.1 -1 2 C-0.67 1.34 -0.34 0.68 0 0 Z " fill="#000102" transform="translate(584,1119)"/>
<path d="M0 0 C0 3 0 3 -1.79 5.19 C-2.58 5.97 -3.37 6.76 -4.19 7.56 C-4.96 8.35 -5.74 9.13 -6.54 9.94 C-8.98 11.99 -11 13.01 -14 14 C-14 11 -14 11 -12.75 9.38 C-11 8 -11 8 -9.12 7.64 C-6.4 6.82 -5.19 5.49 -3.25 3.44 C-2.64 2.8 -2.02 2.16 -1.39 1.5 C-0.93 1 -0.47 0.51 0 0 Z " fill="#121314" transform="translate(617,739)"/>
<path d="M0 0 C0.66 0.66 1.32 1.32 2 2 C-1.3 5.3 -4.6 8.6 -8 12 C-8.66 11.67 -9.32 11.34 -10 11 C-10 10.34 -10 9.68 -10 9 C-8.32 7.34 -8.32 7.34 -6.12 5.5 C-4.01 3.71 -1.96 1.96 0 0 Z " fill="#232526" transform="translate(355,348)"/>
<path d="M0 0 C0.99 0.33 1.98 0.66 3 1 C1.55 4.83 -0.36 6.22 -4 8 C-4.99 8 -5.98 8 -7 8 C-6.02 6.85 -5.04 5.71 -4.06 4.56 C-3.52 3.92 -2.97 3.29 -2.41 2.63 C-1.63 1.73 -0.84 0.84 0 0 Z " fill="#1F2021" transform="translate(529,824)"/>
<path d="M0 0 C0.99 0.33 1.98 0.66 3 1 C1.55 4.83 -0.36 6.22 -4 8 C-4.99 8 -5.98 8 -7 8 C-6.02 6.85 -5.04 5.71 -4.06 4.56 C-3.52 3.92 -2.97 3.29 -2.41 2.63 C-1.63 1.73 -0.84 0.84 0 0 Z " fill="#1F2021" transform="translate(799,554)"/>
<path d="M0 0 C-4.95 0 -9.9 0 -15 0 C-15 -0.66 -15 -1.32 -15 -2 C-13.06 -2.25 -11.13 -2.47 -9.19 -2.69 C-7.57 -2.88 -7.57 -2.88 -5.92 -3.07 C-3 -3 -3 -3 0 0 Z " fill="#000102" transform="translate(545,1121)"/>
<path d="M0 0 C2.02 0.07 4.04 0.13 6.05 0.2 C6.05 0.53 6.05 0.86 6.05 1.2 C2.75 1.53 -0.55 1.86 -3.95 2.2 C-1.95 0.2 -1.95 0.2 0 0 Z " fill="#000102" transform="translate(636.9453125,1113.8046875)"/>
<path d="M0 0 C3.38 -0.12 3.38 -0.12 7 0 C7.66 0.66 8.32 1.32 9 2 C6.03 1.67 3.06 1.34 0 1 C0 0.67 0 0.34 0 0 Z " fill="#000102" transform="translate(488,1114)"/>
<path d="M0 0 C0.33 0 0.66 0 1 0 C1 3.63 1 7.26 1 11 C0.67 11 0.34 11 0 11 C0 7.37 0 3.74 0 0 Z " fill="#1A1B1C" transform="translate(157,713)"/>
<path d="M0 0 C-2.35 1.43 -3.48 2.09 -6.25 1.62 C-6.83 1.42 -7.4 1.21 -8 1 C-5.29 -0.35 -2.99 -0.07 0 0 Z " fill="#000102" transform="translate(666,1109)"/>
<path d="M0 0 C0.33 0 0.66 0 1 0 C0.67 2.64 0.34 5.28 0 8 C-0.33 8 -0.66 8 -1 8 C-0.67 5.36 -0.34 2.72 0 0 Z " fill="#000102" transform="translate(1275,258)"/>
<path d="M0 0 C1.98 0 3.96 0 6 0 C6.33 0.66 6.66 1.32 7 2 C4.69 1.67 2.38 1.34 0 1 C0 0.67 0 0.34 0 0 Z " fill="#000102" transform="translate(465,1109)"/>
<path d="M0 0 C0.66 0.66 1.32 1.32 2 2 C1.62 4.12 1.62 4.12 1 6 C0 5 0 5 -0.06 2.44 C-0.04 1.63 -0.02 0.83 0 0 Z " fill="#000102" transform="translate(1274,161)"/>
<path d="M0 0 C0.33 0 0.66 0 1 0 C1 2.64 1 5.28 1 8 C0.67 8 0.34 8 0 8 C0 5.36 0 2.72 0 0 Z " fill="#1A1B1C" transform="translate(157,697)"/>
<path d="M0 0 C0.33 0 0.66 0 1 0 C1 2.64 1 5.28 1 8 C0.67 8 0.34 8 0 8 C0 5.36 0 2.72 0 0 Z " fill="#000102" transform="translate(1277,246)"/>
<path d="M0 0 C0.33 0 0.66 0 1 0 C1 2.64 1 5.28 1 8 C0.67 8 0.34 8 0 8 C0 5.36 0 2.72 0 0 Z " fill="#000102" transform="translate(1277,171)"/>
<path d="M0 0 C0.99 0.33 1.98 0.66 3 1 C1.02 1.33 -0.96 1.66 -3 2 C-2.01 1.34 -1.02 0.68 0 0 Z " fill="#000102" transform="translate(681,1104)"/>
<path d="M0 0 C0.62 1.88 0.62 1.88 1 4 C0.34 4.66 -0.32 5.32 -1 6 C-0.67 4.02 -0.34 2.04 0 0 Z " fill="#000102" transform="translate(1270,278)"/>
<path d="M0 0 C1.98 0 3.96 0 6 0 C6 0.33 6 0.66 6 1 C4.02 1 2.04 1 0 1 C0 0.67 0 0.34 0 0 Z " fill="#000102" transform="translate(648,1112)"/>
<path d="M0 0 C1.98 0 3.96 0 6 0 C6 0.33 6 0.66 6 1 C4.02 1 2.04 1 0 1 C0 0.67 0 0.34 0 0 Z " fill="#000102" transform="translate(457,1107)"/>
<path d="M0 0 C0.33 0 0.66 0 1 0 C1 1.98 1 3.96 1 6 C0.67 6 0.34 6 0 6 C0 4.02 0 2.04 0 0 Z " fill="#000102" transform="translate(1252,338)"/>
<path d="M0 0 C0.33 0 0.66 0 1 0 C1 1.98 1 3.96 1 6 C0.67 6 0.34 6 0 6 C0 4.02 0 2.04 0 0 Z " fill="#000102" transform="translate(1262,305)"/>
<path d="M0 0 C0.33 0 0.66 0 1 0 C1 1.98 1 3.96 1 6 C0.67 6 0.34 6 0 6 C0 4.02 0 2.04 0 0 Z " fill="#000102" transform="translate(1272,151)"/>
<path d="M0 0 C1.32 0.33 2.64 0.66 4 1 C3.01 1.49 3.01 1.49 2 2 C1.34 1.34 0.68 0.68 0 0 Z " fill="#000102" transform="translate(433,1099)"/>
<path d="M0 0 C1.65 0 3.3 0 5 0 C5 0.33 5 0.66 5 1 C3.35 1 1.7 1 0 1 C0 0.67 0 0.34 0 0 Z " fill="#000102" transform="translate(703,1097)"/>
<path d="M0 0 C0.66 0.33 1.32 0.66 2 1 C0.68 1.33 -0.64 1.66 -2 2 C-1.34 1.34 -0.68 0.68 0 0 Z " fill="#000102" transform="translate(712,1094)"/>
<path d="M0 0 C1.32 0 2.64 0 4 0 C3.67 0.66 3.34 1.32 3 2 C2.01 1.34 1.02 0.68 0 0 Z " fill="#000102" transform="translate(414,1092)"/>
<path d="M0 0 C0.33 0 0.66 0 1 0 C1 1.65 1 3.3 1 5 C0.67 5 0.34 5 0 5 C0 3.35 0 1.7 0 0 Z " fill="#000102" transform="translate(1267,288)"/>
<path d="M0 0 C4 1 4 1 4 1 Z " fill="#000102" transform="translate(671,1107)"/>
<path d="M0 0 C4 1 4 1 4 1 Z " fill="#000102" transform="translate(688,1102)"/>
<path d="M0 0 C0 3 0 3 0 3 Z " fill="#000102" transform="translate(1090,702)"/>
<path d="M0 0 C1 4 1 4 1 4 Z " fill="#000102" transform="translate(1182,523)"/>
<path d="M0 0 C3 1 3 1 3 1 Z " fill="#000102" transform="translate(71,1277)"/>
<path d="M0 0 C3 1 3 1 3 1 Z " fill="#000102" transform="translate(448,1104)"/>
<path d="M0 0 C3 1 3 1 3 1 Z " fill="#000102" transform="translate(695,1100)"/>
<path d="M0 0 C3 1 3 1 3 1 Z " fill="#000102" transform="translate(718,1092)"/>
<path d="M0 0 C3 1 3 1 3 1 Z " fill="#000102" transform="translate(401,1087)"/>
<path d="M0 0 C3 1 3 1 3 1 Z " fill="#000102" transform="translate(735,1085)"/>
<path d="M0 0 C3 1 3 1 3 1 Z " fill="#000102" transform="translate(753,1077)"/>
<path d="M0 0 C0.66 0.66 1.32 1.32 2 2 C1.34 2 0.68 2 0 2 C0 1.34 0 0.68 0 0 Z " fill="#000102" transform="translate(368,1069)"/>
<path d="M0 0 C0.33 0.66 0.66 1.32 1 2 C0.34 1.67 -0.32 1.34 -1 1 C-0.67 0.67 -0.34 0.34 0 0 Z " fill="#000102" transform="translate(794,1054)"/>
<path d="" fill="#000102" transform="translate(0,0)"/>
<path d="" fill="#000102" transform="translate(0,0)"/>
<path d="" fill="#000102" transform="translate(0,0)"/>
<path d="" fill="#000102" transform="translate(0,0)"/>
<path d="" fill="#000102" transform="translate(0,0)"/>
<path d="M0 0 C0.66 0 1.32 0 2 0 C1.67 0.66 1.34 1.32 1 2 C0.67 1.34 0.34 0.68 0 0 Z " fill="#000102" transform="translate(1254,111)"/>
<path d="M0 0 C2 1 2 1 2 1 Z " fill="#000102" transform="translate(81,1272)"/>
<path d="M0 0 C2 1 2 1 2 1 Z " fill="#000102" transform="translate(698,1099)"/>
<path d="M0 0 C2 1 2 1 2 1 Z " fill="#000102" transform="translate(738,1084)"/>
<path d="M0 0 C2 1 2 1 2 1 Z " fill="#3B3E3F" transform="translate(396,1083)"/>
<path d="M0 0 C2 1 2 1 2 1 Z " fill="#000102" transform="translate(763,1072)"/>
<path d="M0 0 C2 1 2 1 2 1 Z " fill="#000102" transform="translate(781,1062)"/>
<path d="M0 0 C2 1 2 1 2 1 Z " fill="#000102" transform="translate(785,1060)"/>
<path d="M0 0 C2 1 2 1 2 1 Z " fill="#3B3E3F" transform="translate(341,1053)"/>
<path d="M0 0 C2 1 2 1 2 1 Z " fill="#000102" transform="translate(798,1052)"/>
<path d="M0 0 C2 1 2 1 2 1 Z " fill="#000102" transform="translate(851,1012)"/>
<path d="" fill="#3B3E3F" transform="translate(0,0)"/>
<path d="" fill="#000102" transform="translate(0,0)"/>
<path d="" fill="#000102" transform="translate(0,0)"/>
<path d="" fill="#000102" transform="translate(0,0)"/>
<path d="" fill="#000102" transform="translate(0,0)"/>
<path d="" fill="#000102" transform="translate(0,0)"/>
<path d="" fill="#000102" transform="translate(0,0)"/>
<path d="" fill="#000102" transform="translate(0,0)"/>
<path d="" fill="#3B3E3F" transform="translate(0,0)"/>
<path d="" fill="#000102" transform="translate(0,0)"/>
<path d="" fill="#000102" transform="translate(0,0)"/>
<path d="" fill="#000102" transform="translate(0,0)"/>
<path d="" fill="#000102" transform="translate(0,0)"/>
<path d="" fill="#000102" transform="translate(0,0)"/>
<path d="" fill="#000102" transform="translate(0,0)"/>
<path d="" fill="#000102" transform="translate(0,0)"/>
<path d="" fill="#000102" transform="translate(0,0)"/>
<path d="" fill="#3B3E3F" transform="translate(0,0)"/>
<path d="" fill="#000102" transform="translate(0,0)"/>
<path d="" fill="#000102" transform="translate(0,0)"/>
<path d="" fill="#000102" transform="translate(0,0)"/>
<path d="" fill="#000102" transform="translate(0,0)"/>
<path d="" fill="#000102" transform="translate(0,0)"/>
<path d="" fill="#000102" transform="translate(0,0)"/>
<path d="" fill="#000102" transform="translate(0,0)"/>
<path d="" fill="#000102" transform="translate(0,0)"/>
<path d="" fill="#000102" transform="translate(0,0)"/>
<path d="M0 0 C2 1 2 1 2 1 Z " fill="#0D0E0F" transform="translate(871,331)"/>
<path d="M0 0 C2 1 2 1 2 1 Z " fill="#000102" transform="translate(938,330)"/>
<path d="M0 0 C2 1 2 1 2 1 Z " fill="#3B3E3F" transform="translate(926,323)"/>
<path d="" fill="#000102" transform="translate(0,0)"/>
<path d="" fill="#000102" transform="translate(0,0)"/>
<path d="" fill="#000102" transform="translate(0,0)"/>
<path d="" fill="#000102" transform="translate(0,0)"/>
<path d="" fill="#000102" transform="translate(0,0)"/>
<path d="" fill="#000102" transform="translate(0,0)"/>
<path d="" fill="#000102" transform="translate(0,0)"/>
<path d="" fill="#000102" transform="translate(0,0)"/>
<path d="" fill="#3B3E3F" transform="translate(0,0)"/>
<path d="" fill="#000102" transform="translate(0,0)"/>
<path d="" fill="#3B3E3F" transform="translate(0,0)"/>
<path d="" fill="#000102" transform="translate(0,0)"/>
<path d="" fill="#000102" transform="translate(0,0)"/>
<path d="" fill="#3B3E3F" transform="translate(0,0)"/>
<path d="" fill="#000102" transform="translate(0,0)"/>
<path d="" fill="#1A1B1C" transform="translate(0,0)"/>
<path d="" fill="#000102" transform="translate(0,0)"/>
<path d="" fill="#000102" transform="translate(0,0)"/>
<path d="" fill="#000102" transform="translate(0,0)"/>
<path d="" fill="#000102" transform="translate(0,0)"/>
<path d="" fill="#000102" transform="translate(0,0)"/>
<path d="" fill="#000102" transform="translate(0,0)"/>
<path d="" fill="#000102" transform="translate(0,0)"/>
<path d="" fill="#000102" transform="translate(0,0)"/>
<path d="" fill="#000102" transform="translate(0,0)"/>
<path d="" fill="#000102" transform="translate(0,0)"/>
<path d="" fill="#000102" transform="translate(0,0)"/>
<path d="" fill="#000102" transform="translate(0,0)"/>
<path d="" fill="#000102" transform="translate(0,0)"/>
<path d="" fill="#000102" transform="translate(0,0)"/>
<path d="" fill="#000102" transform="translate(0,0)"/>
<path d="" fill="#000102" transform="translate(0,0)"/>
<path d="" fill="#000102" transform="translate(0,0)"/>
<path d="" fill="#000102" transform="translate(0,0)"/>
<path d="" fill="#000102" transform="translate(0,0)"/>
<path d="" fill="#000102" transform="translate(0,0)"/>
<path d="" fill="#000102" transform="translate(0,0)"/>
<path d="" fill="#000102" transform="translate(0,0)"/>
<path d="" fill="#000102" transform="translate(0,0)"/>
<path d="" fill="#000102" transform="translate(0,0)"/>
<path d="" fill="#000102" transform="translate(0,0)"/>
<path d="" fill="#000102" transform="translate(0,0)"/>
<path d="" fill="#000102" transform="translate(0,0)"/>
<path d="" fill="#000102" transform="translate(0,0)"/>
<path d="" fill="#000102" transform="translate(0,0)"/>
<path d="" fill="#000102" transform="translate(0,0)"/>
<path d="" fill="#000102" transform="translate(0,0)"/>
<path d="" fill="#000102" transform="translate(0,0)"/>
<path d="" fill="#000102" transform="translate(0,0)"/>
<path d="" fill="#000102" transform="translate(0,0)"/>
<path d="" fill="#000102" transform="translate(0,0)"/>
<path d="" fill="#000102" transform="translate(0,0)"/>
<path d="" fill="#000102" transform="translate(0,0)"/>
<path d="" fill="#000102" transform="translate(0,0)"/>
<path d="" fill="#000102" transform="translate(0,0)"/>
<path d="" fill="#000102" transform="translate(0,0)"/>
<path d="" fill="#000102" transform="translate(0,0)"/>
<path d="" fill="#000102" transform="translate(0,0)"/>
<path d="" fill="#000102" transform="translate(0,0)"/>
<path d="" fill="#000102" transform="translate(0,0)"/>
<path d="" fill="#000102" transform="translate(0,0)"/>
<path d="" fill="#000102" transform="translate(0,0)"/>
<path d="" fill="#000102" transform="translate(0,0)"/>
<path d="" fill="#000102" transform="translate(0,0)"/>
<path d="" fill="#000102" transform="translate(0,0)"/>
<path d="" fill="#000102" transform="translate(0,0)"/>
<path d="" fill="#000102" transform="translate(0,0)"/>
<path d="" fill="#000102" transform="translate(0,0)"/>
<path d="" fill="#000102" transform="translate(0,0)"/>
<path d="" fill="#000102" transform="translate(0,0)"/>
<path d="" fill="#000102" transform="translate(0,0)"/>
<path d="" fill="#000102" transform="translate(0,0)"/>
<path d="" fill="#000102" transform="translate(0,0)"/>
<path d="" fill="#3B3E3F" transform="translate(0,0)"/>
<path d="" fill="#000102" transform="translate(0,0)"/>
<path d="" fill="#000102" transform="translate(0,0)"/>
<path d="" fill="#3B3E3F" transform="translate(0,0)"/>
<path d="" fill="#000102" transform="translate(0,0)"/>
<path d="" fill="#000102" transform="translate(0,0)"/>
<path d="" fill="#3B3E3F" transform="translate(0,0)"/>
<path d="" fill="#000102" transform="translate(0,0)"/>
<path d="" fill="#000102" transform="translate(0,0)"/>
<path d="" fill="#3B3E3F" transform="translate(0,0)"/>
<path d="" fill="#000102" transform="translate(0,0)"/>
<path d="" fill="#3B3E3F" transform="translate(0,0)"/>
<path d="" fill="#000102" transform="translate(0,0)"/>
<path d="" fill="#000102" transform="translate(0,0)"/>
<path d="" fill="#000102" transform="translate(0,0)"/>
<path d="" fill="#3B3E3F" transform="translate(0,0)"/>
<path d="" fill="#000102" transform="translate(0,0)"/>
<path d="" fill="#000102" transform="translate(0,0)"/>
<path d="" fill="#3B3E3F" transform="translate(0,0)"/>
<path d="" fill="#000102" transform="translate(0,0)"/>
<path d="" fill="#000102" transform="translate(0,0)"/>
<path d="" fill="#3B3E3F" transform="translate(0,0)"/>
<path d="" fill="#000102" transform="translate(0,0)"/>
<path d="" fill="#000102" transform="translate(0,0)"/>
<path d="" fill="#000102" transform="translate(0,0)"/>
<path d="" fill="#000102" transform="translate(0,0)"/>
<path d="" fill="#000102" transform="translate(0,0)"/>
<path d="" fill="#000102" transform="translate(0,0)"/>
<path d="" fill="#000102" transform="translate(0,0)"/>
<path d="" fill="#000102" transform="translate(0,0)"/>
<path d="" fill="#000102" transform="translate(0,0)"/>
<path d="" fill="#000102" transform="translate(0,0)"/>
<path d="" fill="#3B3E3F" transform="translate(0,0)"/>
<path d="" fill="#3B3E3F" transform="translate(0,0)"/>
<path d="" fill="#000102" transform="translate(0,0)"/>
<path d="" fill="#000102" transform="translate(0,0)"/>
<path d="" fill="#000102" transform="translate(0,0)"/>
<path d="" fill="#3B3E3F" transform="translate(0,0)"/>
<path d="" fill="#000102" transform="translate(0,0)"/>
<path d="" fill="#000102" transform="translate(0,0)"/>
<path d="" fill="#000102" transform="translate(0,0)"/>
<path d="" fill="#3B3E3F" transform="translate(0,0)"/>
<path d="" fill="#000102" transform="translate(0,0)"/>
<path d="" fill="#000102" transform="translate(0,0)"/>
<path d="" fill="#000102" transform="translate(0,0)"/>
<path d="" fill="#000102" transform="translate(0,0)"/>
<path d="" fill="#000102" transform="translate(0,0)"/>
<path d="" fill="#000102" transform="translate(0,0)"/>
<path d="" fill="#3B3E3F" transform="translate(0,0)"/>
<path d="" fill="#000102" transform="translate(0,0)"/>
<path d="" fill="#000102" transform="translate(0,0)"/>
<path d="" fill="#000102" transform="translate(0,0)"/>
<path d="" fill="#000102" transform="translate(0,0)"/>
<path d="" fill="#3B3E3F" transform="translate(0,0)"/>
<path d="" fill="#000102" transform="translate(0,0)"/>
<path d="" fill="#000102" transform="translate(0,0)"/>
<path d="" fill="#000102" transform="translate(0,0)"/>
<path d="" fill="#000102" transform="translate(0,0)"/>
<path d="" fill="#3B3E3F" transform="translate(0,0)"/>
<path d="" fill="#000102" transform="translate(0,0)"/>
<path d="" fill="#000102" transform="translate(0,0)"/>
<path d="" fill="#3B3E3F" transform="translate(0,0)"/>
<path d="" fill="#000102" transform="translate(0,0)"/>
<path d="" fill="#000102" transform="translate(0,0)"/>
<path d="" fill="#000102" transform="translate(0,0)"/>
<path d="" fill="#000102" transform="translate(0,0)"/>
<path d="" fill="#000102" transform="translate(0,0)"/>
<path d="" fill="#000102" transform="translate(0,0)"/>
<path d="" fill="#000102" transform="translate(0,0)"/>
<path d="" fill="#3B3E3F" transform="translate(0,0)"/>
<path d="" fill="#000102" transform="translate(0,0)"/>
<path d="" fill="#000102" transform="translate(0,0)"/>
<path d="" fill="#3B3E3F" transform="translate(0,0)"/>
<path d="" fill="#000102" transform="translate(0,0)"/>
<path d="" fill="#000102" transform="translate(0,0)"/>
<path d="" fill="#000102" transform="translate(0,0)"/>
<path d="" fill="#000102" transform="translate(0,0)"/>
<path d="" fill="#000102" transform="translate(0,0)"/>
<path d="" fill="#3B3E3F" transform="translate(0,0)"/>
<path d="" fill="#3B3E3F" transform="translate(0,0)"/>
<path d="" fill="#000102" transform="translate(0,0)"/>
<path d="" fill="#000102" transform="translate(0,0)"/>
<path d="" fill="#000102" transform="translate(0,0)"/>
<path d="" fill="#000102" transform="translate(0,0)"/>
<path d="" fill="#000102" transform="translate(0,0)"/>
<path d="" fill="#000102" transform="translate(0,0)"/>
<path d="" fill="#000102" transform="translate(0,0)"/>
<path d="" fill="#000102" transform="translate(0,0)"/>
<path d="" fill="#000102" transform="translate(0,0)"/>
<path d="" fill="#000102" transform="translate(0,0)"/>
<path d="" fill="#000102" transform="translate(0,0)"/>
<path d="" fill="#000102" transform="translate(0,0)"/>
<path d="" fill="#000102" transform="translate(0,0)"/>
<path d="" fill="#000102" transform="translate(0,0)"/>
<path d="" fill="#000102" transform="translate(0,0)"/>
<path d="" fill="#3B3E3F" transform="translate(0,0)"/>
<path d="" fill="#000102" transform="translate(0,0)"/>
<path d="" fill="#000102" transform="translate(0,0)"/>
<path d="" fill="#000102" transform="translate(0,0)"/>
<path d="" fill="#000102" transform="translate(0,0)"/>
<path d="" fill="#000102" transform="translate(0,0)"/>
<path d="" fill="#000102" transform="translate(0,0)"/>
<path d="" fill="#000102" transform="translate(0,0)"/>
<path d="" fill="#000102" transform="translate(0,0)"/>
<path d="" fill="#000102" transform="translate(0,0)"/>
<path d="" fill="#000102" transform="translate(0,0)"/>
<path d="" fill="#000102" transform="translate(0,0)"/>
<path d="" fill="#000102" transform="translate(0,0)"/>
<path d="" fill="#000102" transform="translate(0,0)"/>
<path d="" fill="#000102" transform="translate(0,0)"/>
<path d="" fill="#000102" transform="translate(0,0)"/>
<path d="" fill="#000102" transform="translate(0,0)"/>
<path d="" fill="#000102" transform="translate(0,0)"/>
<path d="" fill="#000102" transform="translate(0,0)"/>
<path d="" fill="#000102" transform="translate(0,0)"/>
<path d="" fill="#000102" transform="translate(0,0)"/>
<path d="" fill="#000102" transform="translate(0,0)"/>
<path d="" fill="#3B3E3F" transform="translate(0,0)"/>
<path d="" fill="#000102" transform="translate(0,0)"/>
<path d="" fill="#000102" transform="translate(0,0)"/>
<path d="" fill="#000102" transform="translate(0,0)"/>
<path d="" fill="#000102" transform="translate(0,0)"/>
<path d="" fill="#000102" transform="translate(0,0)"/>
<path d="" fill="#000102" transform="translate(0,0)"/>
<path d="" fill="#000102" transform="translate(0,0)"/>
<path d="" fill="#000102" transform="translate(0,0)"/>
<path d="" fill="#000102" transform="translate(0,0)"/>
<path d="" fill="#3B3E3F" transform="translate(0,0)"/>
<path d="" fill="#3B3E3F" transform="translate(0,0)"/>
<path d="" fill="#000102" transform="translate(0,0)"/>
<path d="" fill="#000102" transform="translate(0,0)"/>
<path d="" fill="#000102" transform="translate(0,0)"/>
<path d="" fill="#3B3E3F" transform="translate(0,0)"/>
<path d="" fill="#3B3E3F" transform="translate(0,0)"/>
<path d="" fill="#000102" transform="translate(0,0)"/>
<path d="" fill="#000102" transform="translate(0,0)"/>
<path d="" fill="#3B3E3F" transform="translate(0,0)"/>
<path d="" fill="#1A1B1C" transform="translate(0,0)"/>
<path d="" fill="#3B3E3F" transform="translate(0,0)"/>
<path d="" fill="#3B3E3F" transform="translate(0,0)"/>
<path d="" fill="#000102" transform="translate(0,0)"/>
<path d="" fill="#3B3E3F" transform="translate(0,0)"/>
<path d="" fill="#3B3E3F" transform="translate(0,0)"/>
<path d="" fill="#000102" transform="translate(0,0)"/>
<path d="" fill="#3B3E3F" transform="translate(0,0)"/>
<path d="" fill="#3B3E3F" transform="translate(0,0)"/>
<path d="" fill="#3B3E3F" transform="translate(0,0)"/>
<path d="" fill="#000102" transform="translate(0,0)"/>
<path d="" fill="#3B3E3F" transform="translate(0,0)"/>
<path d="" fill="#3B3E3F" transform="translate(0,0)"/>
<path d="" fill="#3B3E3F" transform="translate(0,0)"/>
<path d="" fill="#3B3E3F" transform="translate(0,0)"/>
<path d="" fill="#000102" transform="translate(0,0)"/>
<path d="" fill="#3B3E3F" transform="translate(0,0)"/>
<path d="" fill="#000102" transform="translate(0,0)"/>
<path d="" fill="#3B3E3F" transform="translate(0,0)"/>
<path d="" fill="#3B3E3F" transform="translate(0,0)"/>
<path d="" fill="#000102" transform="translate(0,0)"/>
<path d="" fill="#000102" transform="translate(0,0)"/>
<path d="" fill="#000102" transform="translate(0,0)"/>
<path d="" fill="#3B3E3F" transform="translate(0,0)"/>
<path d="" fill="#000102" transform="translate(0,0)"/>
<path d="" fill="#3B3E3F" transform="translate(0,0)"/>
<path d="" fill="#000102" transform="translate(0,0)"/>
<path d="" fill="#000102" transform="translate(0,0)"/>
<path d="" fill="#3B3E3F" transform="translate(0,0)"/>
<path d="" fill="#3B3E3F" transform="translate(0,0)"/>
<path d="" fill="#000102" transform="translate(0,0)"/>
<path d="" fill="#3B3E3F" transform="translate(0,0)"/>
<path d="" fill="#3B3E3F" transform="translate(0,0)"/>
<path d="" fill="#000102" transform="translate(0,0)"/>
<path d="" fill="#3B3E3F" transform="translate(0,0)"/>
<path d="" fill="#3B3E3F" transform="translate(0,0)"/>
<path d="" fill="#3B3E3F" transform="translate(0,0)"/>
<path d="" fill="#3B3E3F" transform="translate(0,0)"/>
<path d="" fill="#000102" transform="translate(0,0)"/>
<path d="" fill="#3B3E3F" transform="translate(0,0)"/>
<path d="" fill="#000102" transform="translate(0,0)"/>
<path d="" fill="#000102" transform="translate(0,0)"/>
<path d="" fill="#3B3E3F" transform="translate(0,0)"/>
<path d="" fill="#3B3E3F" transform="translate(0,0)"/>
<path d="" fill="#3B3E3F" transform="translate(0,0)"/>
<path d="" fill="#000102" transform="translate(0,0)"/>
<path d="" fill="#3B3E3F" transform="translate(0,0)"/>
<path d="" fill="#3B3E3F" transform="translate(0,0)"/>
<path d="" fill="#000102" transform="translate(0,0)"/>
<path d="" fill="#3B3E3F" transform="translate(0,0)"/>
<path d="" fill="#000102" transform="translate(0,0)"/>
<path d="" fill="#000102" transform="translate(0,0)"/>
<path d="" fill="#000102" transform="translate(0,0)"/>
<path d="" fill="#3B3E3F" transform="translate(0,0)"/>
<path d="" fill="#000102" transform="translate(0,0)"/>
<path d="" fill="#000102" transform="translate(0,0)"/>
<path d="" fill="#000102" transform="translate(0,0)"/>
<path d="" fill="#3B3E3F" transform="translate(0,0)"/>
<path d="" fill="#000102" transform="translate(0,0)"/>
<path d="" fill="#000102" transform="translate(0,0)"/>
<path d="" fill="#3B3E3F" transform="translate(0,0)"/>
<path d="" fill="#000102" transform="translate(0,0)"/>
<path d="" fill="#000102" transform="translate(0,0)"/>
<path d="" fill="#000102" transform="translate(0,0)"/>
<path d="" fill="#000102" transform="translate(0,0)"/>
<path d="" fill="#3B3E3F" transform="translate(0,0)"/>
<path d="" fill="#000102" transform="translate(0,0)"/>
<path d="" fill="#3B3E3F" transform="translate(0,0)"/>
<path d="" fill="#3B3E3F" transform="translate(0,0)"/>
<path d="" fill="#000102" transform="translate(0,0)"/>
<path d="" fill="#000102" transform="translate(0,0)"/>
<path d="" fill="#3B3E3F" transform="translate(0,0)"/>
<path d="" fill="#000102" transform="translate(0,0)"/>
<path d="" fill="#000102" transform="translate(0,0)"/>
<path d="" fill="#000102" transform="translate(0,0)"/>
<path d="" fill="#000102" transform="translate(0,0)"/>
<path d="" fill="#3B3E3F" transform="translate(0,0)"/>
<path d="" fill="#000102" transform="translate(0,0)"/>
<path d="" fill="#000102" transform="translate(0,0)"/>
<path d="" fill="#3B3E3F" transform="translate(0,0)"/>
<path d="" fill="#3B3E3F" transform="translate(0,0)"/>
<path d="" fill="#3B3E3F" transform="translate(0,0)"/>
<path d="" fill="#000102" transform="translate(0,0)"/>
<path d="" fill="#000102" transform="translate(0,0)"/>
<path d="" fill="#3B3E3F" transform="translate(0,0)"/>
<path d="" fill="#3B3E3F" transform="translate(0,0)"/>
<path d="" fill="#3B3E3F" transform="translate(0,0)"/>
<path d="" fill="#000102" transform="translate(0,0)"/>
<path d="" fill="#3B3E3F" transform="translate(0,0)"/>
<path d="" fill="#000102" transform="translate(0,0)"/>
<path d="" fill="#000102" transform="translate(0,0)"/>
<path d="" fill="#000102" transform="translate(0,0)"/>
<path d="" fill="#000102" transform="translate(0,0)"/>
<path d="" fill="#3B3E3F" transform="translate(0,0)"/>
<path d="" fill="#000102" transform="translate(0,0)"/>
<path d="" fill="#000102" transform="translate(0,0)"/>
<path d="" fill="#000102" transform="translate(0,0)"/>
<path d="" fill="#000102" transform="translate(0,0)"/>
<path d="" fill="#000102" transform="translate(0,0)"/>
<path d="" fill="#000102" transform="translate(0,0)"/>
<path d="" fill="#000102" transform="translate(0,0)"/>
</svg>
